<?xml version="1.0" encoding="UTF-8"?><svg id="Swirl" xmlns="http://www.w3.org/2000/svg" xmlns:xlink="http://www.w3.org/1999/xlink" viewBox="0 0 654.33 801.38"><defs><style>.cls-1{fill:none;}.cls-2{clip-path:url(#clippath);}.cls-3{fill:#84a98c;}</style><clipPath id="clippath"><rect class="cls-1" y="-.92" width="814.7" height="814.7"/></clipPath></defs><g class="cls-2"><g id="h4UXCY"><path class="cls-3" d="M-93.8-234.79c44-32.74,87.07-66.62,136.41-91.69,60.95-30.97,124.6-52.99,191.95-64.42,32.98-5.6,50.5,2.98,54.76,26.38,4.19,22.97-10.53,38.21-42.18,43.68C-56.64-268.3-274.89,12.84-247.87,316.81c23.36,262.76,291.69,460.86,546.72,403.6,187.62-42.12,315.07-234.63,276.43-417.53C541.43,142.65,367.24,38.71,220.67,91.28,120.84,127.08,58.29,234.29,78.47,335.01c20.6,102.83,139.5,165.37,227.03,119.41,60.51-31.78,86.59-108.66,54.38-163.24-19.09-32.35-48.79-47.58-86.29-45.74-27.95,1.37-48.17,15.37-59.58,41.21-16.16,36.57,2.01,69.83,41.61,76.42,25.23,4.2,38.16,17.96,36.34,38.65-1.85,20.97-20.03,34.14-45.26,31.68-44.93-4.38-78.72-27.04-97.71-67.51-20.98-44.68-15.62-89.28,12.35-129.54,36.02-51.84,86.9-71.9,148.37-59.25,66.73,13.74,111.58,54.73,129.03,120.63,38.56,145.62-103.43,276.06-254.62,235.17C26.91,490.39-42.81,316.47,36.53,164.75,107.72,28.63,269.85-28.87,419.68,28.86c191.5,73.8,280.97,279.3,208.88,479.86-16.58,46.13-39.23,88.87-70.8,126.66-7.21,8.63-12.9,18.17-20.58,26.65s-16.32,17.11-25.1,25.01c-16.21,14.57-33.79,27.6-52.45,38.86-19.4,11.7-37.84,24.55-58.45,34.25-240.02,112.91-583.13-11.59-690.41-310.68-64.27-179.17-31.66-350.28,57.95-513.64,21.56-39.3,51-72.96,76.37-109.52,20.36-20.36,40.73-40.73,61.09-61.09Z"/></g></g></svg>