<?xml version="1.0" encoding="UTF-8"?><svg id="Swirl" xmlns="http://www.w3.org/2000/svg" xmlns:xlink="http://www.w3.org/1999/xlink" viewBox="0 0 467.82 394.17"><defs><style>.cls-1{fill:none;}.cls-2{clip-path:url(#clippath);}.cls-3{fill:#84a98c;}.cls-4{clip-path:url(#clippath-1);}</style><clipPath id="clippath"><rect class="cls-1" x="497.86" y="-.92" width="814.7" height="814.7"/></clipPath><clipPath id="clippath-1"><rect class="cls-1" x="-503.41" y="0" width="483.41" height="466.36"/></clipPath></defs><g id="h4UXCY"><path class="cls-3" d="M457.69,43.53c-5.37-20.28-12.89-40.13-22.62-59.31-1.51-2.98-3.09-5.93-4.74-8.84-15.14-26.59-33.5-50.51-55.84-71.37-10.94-10.22-19.6-11.33-26.96-3.64-7.22,7.55-5.48,16.87,5,26.72,100.56,94.49,112.82,253.33,27.82,360.25-73.48,92.43-222.56,100.31-303.74,16.07-59.72-61.98-59.9-165.31-.39-224.13,52.13-51.53,142.83-47.44,184.65,8.32,28.48,37.98,25.43,93.45-6.93,126.12-33.04,33.35-92.88,27.41-114.25-11.33-14.78-26.79-5.58-61.94,19.91-74.39,15.11-7.38,29.96-5.76,43.52,4.17,10.1,7.4,14.21,17.61,12.11,30.08-2.97,17.65-17.96,25.6-34.38,18.3-10.46-4.65-18.68-2.7-23.1,5.48-4.48,8.29-.93,17.69,9.1,22.99,17.87,9.43,36.08,9.29,53.15-1.14,18.85-11.53,27.84-29.51,27.31-51.45-.68-28.25-14.75-48.28-40.84-58.7-28.32-11.31-55.18-7.05-77.94,13.27-50.3,44.91-29.38,128.64,37.18,150.62,69.22,22.85,138.13-24.95,145.87-101.19,6.95-68.4-39.46-129.85-109.68-145.19C112.13-4.38,28.06,50.36,5.57,143.06c-14.9,61.42,.43,128.49,42.31,176.16,35.35,40.23,86.33,65.1,139.01,72.57,57,8.09,115.95-4.53,164.13-36.2,4.12-2.71,8.15-5.54,12.09-8.49,49.77-37.31,83.86-93.04,97.02-153.6,10.73-49.39,10.54-101-2.42-149.95Z"/></g><g class="cls-2"><g id="h4UXCY-2"><path class="cls-3" d="M404.06-234.79c44-32.74,87.07-66.62,136.41-91.69,60.95-30.97,124.6-52.99,191.95-64.42,32.98-5.6,50.5,2.98,54.76,26.38,4.19,22.97-10.53,38.21-42.18,43.68C441.22-268.3,222.97,12.84,249.99,316.81c23.36,262.76,291.69,460.86,546.72,403.6,187.62-42.12,315.07-234.63,276.43-417.53-33.84-160.23-208.03-264.17-354.61-211.6-99.83,35.8-162.38,143.01-142.2,243.74,20.6,102.83,139.5,165.37,227.03,119.41,60.51-31.78,86.59-108.66,54.38-163.24-19.09-32.35-48.79-47.58-86.29-45.74-27.95,1.37-48.17,15.37-59.58,41.21-16.16,36.57,2.01,69.83,41.61,76.42,25.23,4.2,38.16,17.96,36.34,38.65-1.85,20.97-20.03,34.14-45.26,31.68-44.93-4.38-78.72-27.04-97.71-67.51-20.98-44.68-15.62-89.28,12.35-129.54,36.02-51.84,86.9-71.9,148.37-59.25,66.73,13.74,111.58,54.73,129.03,120.63,38.56,145.62-103.43,276.06-254.62,235.17-157.21-42.52-226.92-216.44-147.58-368.15C605.58,28.63,767.71-28.87,917.54,28.86c191.5,73.8,280.97,279.3,208.88,479.86-16.58,46.13-39.23,88.87-70.8,126.66-7.21,8.63-12.9,18.17-20.58,26.65s-16.32,17.11-25.1,25.01c-16.21,14.57-33.79,27.6-52.45,38.86-19.4,11.7-37.84,24.55-58.45,34.25-240.02,112.91-583.13-11.59-690.41-310.68-64.27-179.17-31.66-350.28,57.95-513.64,21.56-39.3,51-72.96,76.37-109.52,20.36-20.36,40.73-40.73,61.09-61.09Z"/></g></g><g class="cls-4"><g id="h4UXCY-3"><path class="cls-3" d="M52.88,355.08c-4.1,28.65-7.45,57.39-16.29,85.17-10.92,34.33-26.08,66.32-46.45,95.73-9.97,14.41-19.48,17.74-29.55,10.6-9.89-7.01-10.08-18.2-.55-32.06C51.55,381.47,28.65,194.99-91.9,91.58-196.11,2.18-365.98,28.41-438.01,145.02c-52.99,85.79-29.3,205.26,51.39,259.13,70.68,47.19,171.98,20.96,206.22-53.4,23.32-50.65,7.05-114.04-36.98-144.11-44.96-30.71-111.04-9.66-126.17,40.19-10.47,34.46,8.04,72.91,39.64,81.26,18.74,4.95,35.1-.45,48.09-15.14,9.68-10.95,11.94-23.73,6.69-37.64-7.43-19.69-26.16-25.32-42.99-13-10.72,7.85-20.44,7.55-27.31-.86-6.97-8.52-5.14-20.23,4.94-28.73,17.96-15.14,38.52-19.3,60.17-11.28,23.91,8.85,38.21,27.51,42.68,52.98,5.76,32.81-5.46,59.3-32.46,77.53-29.31,19.79-60.57,21.23-90.93,3.14-67.08-39.98-62.87-141.7,7.08-182.89,72.74-42.83,161.48-3.92,187.83,82.36,23.65,77.41-14.46,159.42-90.06,193.81-96.62,43.95-204.05,.62-250.85-101.19-10.23-22.26-17.26-46.31-20.56-70.59-3.4-25.02-1.95-49.86,3.21-74.5,.21-1.01,.42-2.02,.62-3.03,2.06-10.36,4.47-20.69,7.97-30.67C-443.47,36.61-273.16-45.02-125.16,26.61-36.49,69.51,13.95,145.58,40.81,240.04c6.46,22.72,8,46.29,12.08,69.41,0,15.21,0,30.42,0,45.63Z"/></g></g></svg>