<?xml version="1.0" encoding="utf-8"?>
<!-- Generator: Adobe Illustrator 27.0.0, SVG Export Plug-In . SVG Version: 6.00 Build 0)  -->
<svg version="1.1" id="Layer_1" xmlns="http://www.w3.org/2000/svg" xmlns:xlink="http://www.w3.org/1999/xlink" x="0px" y="0px"
	 viewBox="0 0 1972.4 1694.2" style="enable-background:new 0 0 1972.4 1694.2;" xml:space="preserve">
<style type="text/css">
	.st0{opacity:0.25;}
	.st1{fill:#84A98C;}
	.st2{fill:#393E41;}
</style>
<g id="Group_338" transform="matrix(-0.891, -0.454, 0.454, -0.891, 800.153, 1225.542)" class="st0">
	<path id="Path_399" class="st1" d="M1552.1,545.5c-9.1,62.1-16.6,124.3-36.2,184.5c-24.3,74.3-57.9,143.6-103.2,207.3
		c-22.2,31.2-43.3,38.4-65.6,23c-22-15.2-22.4-39.4-1.2-69.4c203.2-288.2,152.4-692-115.4-916C999.1-218.8,621.8-162,461.8,90.6
		c-117.7,185.8-65.1,444.6,114.1,561.2c157,102.2,382,45.4,458-115.7c51.8-109.7,15.7-247-82.1-312.1
		c-99.9-66.5-246.6-20.9-280.2,87c-23.3,74.6,17.9,157.9,88.1,176c41.6,10.7,78-1,106.8-32.8c21.5-23.7,26.5-51.4,14.9-81.5
		c-16.5-42.7-58.1-54.8-95.5-28.2c-23.8,17-45.4,16.3-60.7-1.9c-15.5-18.5-11.4-43.8,11-62.2c39.9-32.8,85.5-41.8,133.6-24.4
		c53.1,19.2,84.9,59.6,94.8,114.7c12.8,71.1-12.1,128.4-72.1,167.9c-65.1,42.9-134.5,46-202,6.8c-149-86.6-139.6-306.9,15.7-396.1
		c161.6-92.8,358.7-8.5,417.2,178.4c52.5,167.7-32.1,345.3-200,419.8c-279.9,124.2-568.6-88.3-602.8-377.1
		c-6.2-52.1-4.3-105.1,5.9-156.6c59.9-300.7,385.8-479.1,676.3-428.6c53.2,9.2,105,25.8,153.8,48.8
		c196.9,92.9,309,257.7,368.6,462.3c14.4,49.2,17.8,100.3,26.8,150.3L1552.1,545.5z"/>
</g>
<polygon class="st2" points="251,51 293,0 209,0 "/>
<polygon class="st2" points="419,51 461,0 377,0 "/>
<polygon class="st2" points="502.8,51 544.8,0 460.8,0 "/>
<polygon class="st2" points="754.4,51 796.4,0 712.4,0 "/>
<polygon class="st2" points="837.9,51 879.9,0 795.9,0 "/>
<polygon class="st2" points="1005.5,51 1047.5,0 963.5,0 "/>
<polygon class="st2" points="1089.5,51 1131.5,0 1047.5,0 "/>
<polygon class="st2" points="1173,51 1215,0 1131,0 "/>
<polygon class="st2" points="1257,51 1299,0 1215,0 "/>
<polygon class="st2" points="1340.6,51 1382.6,0 1298.6,0 "/>
<polygon class="st2" points="1424.6,51 1466.6,0 1382.6,0 "/>
<polygon class="st2" points="1592.2,51 1634.2,0 1550.1,0 "/>
<polygon class="st2" points="1675.7,51 1717.7,0 1633.7,0 "/>
<polygon class="st2" points="293.2,102.1 335.2,51.1 251.2,51.1 "/>
<polygon class="st2" points="377.2,102.1 419.2,51.1 335.2,51.1 "/>
<polygon class="st2" points="461,102.1 503,51.1 419,51.1 "/>
<polygon class="st2" points="545,102.1 587,51.1 503,51.1 "/>
<polygon class="st2" points="628.6,102.1 670.6,51.1 586.6,51.1 "/>
<polygon class="st2" points="712.6,102.1 754.6,51.1 670.6,51.1 "/>
<polygon class="st2" points="796.2,102.1 838.2,51.1 754.1,51.1 "/>
<polygon class="st2" points="880.2,102.1 922.2,51.1 838.1,51.1 "/>
<polygon class="st2" points="963.7,102.1 1005.7,51.1 921.7,51.1 "/>
<polygon class="st2" points="1047.7,102.1 1089.7,51.1 1005.7,51.1 "/>
<polygon class="st2" points="1131.3,102.1 1173.3,51.1 1089.2,51.1 "/>
<polygon class="st2" points="1215.3,102.1 1257.3,51.1 1173.2,51.1 "/>
<polygon class="st2" points="1298.8,102.1 1340.8,51.1 1256.8,51.1 "/>
<polygon class="st2" points="1382.8,102.1 1424.8,51.1 1340.8,51.1 "/>
<polygon class="st2" points="1466.4,102.1 1508.4,51.1 1424.4,51.1 "/>
<polygon class="st2" points="1550.4,102.1 1592.4,51.1 1508.4,51.1 "/>
<polygon class="st2" points="1762.9,51 1804.9,0 1720.9,0 "/>
<polygon class="st2" points="1846.9,51 1888.9,0 1804.9,0 "/>
<polygon class="st2" points="1805.1,102.1 1847.1,51.1 1763.1,51.1 "/>
<polygon class="st2" points="1888.7,102.1 1930.7,51.1 1846.7,51.1 "/>
<polygon class="st2" points="1972.7,102.1 2014.7,51.1 1930.7,51.1 "/>
<polygon class="st2" points="167.8,51 209.8,0 125.8,0 "/>
<polygon class="st2" points="83.8,51 125.8,0 41.8,0 "/>
<polygon class="st2" points="126,102.1 168,51.1 84,51.1 "/>
<polygon class="st2" points="42,102.1 84,51.1 0,51.1 "/>
<polygon class="st2" points="0,51.1 42,0.1 -42,0.1 "/>
<polygon class="st2" points="-42,102.1 0,51.1 -84,51.1 "/>
</svg>
