<?xml version="1.0" encoding="utf-8"?>
<!-- Generator: Adobe Illustrator 27.0.0, SVG Export Plug-In . SVG Version: 6.00 Build 0)  -->
<svg version="1.1" id="Swirl" xmlns="http://www.w3.org/2000/svg" xmlns:xlink="http://www.w3.org/1999/xlink" x="0px" y="0px"
	 viewBox="0 0 851.5 671.8" style="enable-background:new 0 0 851.5 671.8;" xml:space="preserve">
<style type="text/css">
	.st0{enable-background:new    ;}
</style>
<g class="st0">
	<path d="M119.1,145.5L97.3,51.3h-0.4l-21.8,94.2H41.4L3.8,0h37.8L61,94.6h0.5L82.9,0h28.5l21.1,95h0.4l19.8-95h37.5l-38.5,145.5
		H119.1z"/>
	<path d="M222.7,100.8c1.7,12.4,12.2,20.7,25.5,20.7c8.8,0,14.6-3.3,19.8-10.3h33.4C291.1,135,271.2,149,248.3,149
		c-31.5,0-57.8-25.4-57.8-57.8c0-31.5,25.2-58.6,57.2-58.6c32.7,0,57.6,25.8,57.6,59.6c0,3.1-0.2,5.7-0.8,8.7L222.7,100.8
		L222.7,100.8z M272.7,78.8c-2.6-11.2-12.4-18.7-25-18.7c-11.8,0-22,7.1-24.6,18.7H272.7z"/>
	<path d="M466.2,145.5v-11.8h-0.4c-4.7,9.7-17.7,15.5-32.1,15.5c-32.2,0-54.6-25.4-54.6-58.4c0-32.2,23.4-58.2,54.6-58.2
		c13.4,0,25.8,5.3,32.1,15.4h0.4V36.3h32.7v109.1L466.2,145.5L466.2,145.5z M466.2,90.8c0-15.4-12.4-27.7-27.7-27.7
		c-15,0-26.8,12.4-26.8,28.1c0,15.1,12,27.5,27.1,27.5C454.2,118.8,466.2,106.5,466.2,90.8z"/>
	<path d="M522.5,145.5V36.3h30.7V48h0.4c5.7-11.6,14.7-15.4,27.4-15.4v32.8c-19.5,0.2-25.8,7.4-25.8,19.8v60.2L522.5,145.5
		L522.5,145.5z"/>
	<path d="M618.8,100.8c1.7,12.4,12.2,20.7,25.5,20.7c8.8,0,14.6-3.3,19.8-10.3h33.4C687.2,135,667.3,149,644.4,149
		c-31.5,0-57.8-25.4-57.8-57.8c0-31.5,25.2-58.6,57.2-58.6c32.7,0,57.6,25.8,57.6,59.6c0,3.1-0.2,5.7-0.8,8.7L618.8,100.8
		L618.8,100.8z M668.8,78.8c-2.6-11.2-12.4-18.7-25-18.7c-11.8,0-22,7.1-24.6,18.7H668.8z"/>
</g>
<g class="st0">
	<path d="M58.9,305.9c-0.2-6.3-4.7-8.3-10-8.3c-5.5,0-9.4,3.1-9.4,7.3c0,5.9,5.3,8.8,20.4,12.8c26,6.9,34.4,17.3,34.4,33.2
		c0,22.8-19.7,37.2-44.5,37.2c-24.6,0-42.1-14-44.5-36.2h32.5c1,6.9,5.9,10,12.4,10c5.7,0,11.4-3.3,11.4-8.4
		c0-6.1-3.7-9.3-20.1-14.4C14,330.7,6.8,319.9,6.8,307c0-21.7,20.3-35.6,42.3-35.6c23.6,0,40.4,13,41.9,34.4H58.9z"/>
	<path d="M117.1,384.3V300H101v-24.8h16.1v-36.4h32.7v36.4h15.7V300h-15.7v84.4H117.1z"/>
	<path d="M179.5,384.3V275.2h30.7v11.6h0.4c5.7-11.6,14.7-15.4,27.4-15.4v32.8c-19.5,0.2-25.8,7.4-25.8,19.8v60.2H179.5z"/>
	<path d="M303.1,387.7c-33.2,0-58.8-24.6-58.8-58c0-33.8,26.1-58,58.8-58c32.8,0,58.8,24.6,58.8,57.6
		C362,363.5,336,387.7,303.1,387.7z M329.4,329.7c0-14.6-11-27.5-26.4-27.5c-14.4,0-26,12.6-26,27.5c0,15,11.4,27.5,26.1,27.5
		C318.5,357.2,329.4,344.3,329.4,329.7z"/>
	<path d="M448.9,384.3v-60.6c0-14.7-5.1-21.7-17.1-21.7c-13.1,0-18.7,7.3-18.7,22v60.2h-32.7V275.2h30.5v11.6h0.4
		c6.9-11.2,16.5-15.4,29.7-15.4c19.7,0,40.5,11,40.5,43.2v69.6H448.9z"/>
	<path d="M585,371.5c-4.9,10.4-17.1,16.3-30.5,16.3c-31.8,0-54.9-24.6-54.9-57.5c0-33.4,23.4-58.8,54.9-58.8
		c14.1,0,25,5.3,30.3,13.8h0.4v-10.3h32.7v97.6c0,14.7-2,26-5.9,33.4c-7.9,15.1-29.3,26.8-56.6,26.8c-30.9,0-50.9-17.5-53.7-38.4
		h37.8c3.7,8.1,11,10.8,19.1,10.8c16.5,0,26.5-10.8,26.5-30.7L585,371.5L585,371.5z M585.2,330.3c0-16-10.8-28.1-26.8-28.1
		c-14.6,0-26.1,12.2-26.1,27.1c0,15.4,10.4,28.1,26.1,28.1C574.4,357.4,585.2,346,585.2,330.3z"/>
	<path d="M667.4,339.7c1.7,12.4,12.2,20.7,25.5,20.7c8.8,0,14.6-3.3,19.8-10.3h33.4c-10.3,23.8-30.2,37.8-53.2,37.8
		c-31.5,0-57.8-25.4-57.8-57.8c0-31.5,25.2-58.6,57.2-58.6c32.7,0,57.6,25.8,57.6,59.6c0,3.1-0.2,5.7-0.8,8.7L667.4,339.7
		L667.4,339.7z M717.4,317.7c-2.6-11.2-12.4-18.7-25-18.7c-11.8,0-22,7.1-24.6,18.7H717.4z"/>
	<path d="M767.9,384.3V275.2h30.7v11.6h0.4c5.7-11.6,14.7-15.4,27.4-15.4v32.8c-19.5,0.2-25.8,7.4-25.8,19.8v60.2H767.9z"/>
</g>
<g class="st0">
	<path d="M19,623.2v-84.4H2.8V514h16.1v-36.4h32.7V514h15.7v24.8H51.6v84.4H19z"/>
	<path d="M132.2,626.5c-33.2,0-58.8-24.6-58.8-58c0-33.8,26.1-58,58.8-58c32.8,0,58.8,24.6,58.8,57.6
		C191,602.3,165.1,626.5,132.2,626.5z M158.4,568.5c0-14.6-11-27.5-26.4-27.5c-14.4,0-26,12.6-26,27.5c0,15,11.4,27.5,26.1,27.5
		C147.6,596,158.4,583,158.4,568.5z"/>
	<path d="M289.8,610.4c-4.9,10.4-17.1,16.3-30.5,16.3c-31.8,0-54.9-24.6-54.9-57.5c0-33.4,23.4-58.8,54.9-58.8
		c14.1,0,25,5.3,30.3,13.8h0.4V514h32.7v97.6c0,14.7-2,26-5.9,33.4c-7.9,15.1-29.3,26.8-56.6,26.8c-30.9,0-50.9-17.5-53.7-38.4h37.8
		c3.7,8.1,11,10.8,19.1,10.8c16.5,0,26.5-10.8,26.5-30.7L289.8,610.4L289.8,610.4z M290,569.1c0-16-10.8-28.1-26.8-28.1
		c-14.6,0-26.1,12.2-26.1,27.1c0,15.4,10.4,28.1,26.1,28.1C279.2,596.3,290,584.8,290,569.1z"/>
	<path d="M372.2,578.6c1.7,12.4,12.2,20.7,25.5,20.7c8.8,0,14.6-3.3,19.8-10.3H451c-10.4,23.8-30.3,37.8-53.3,37.8
		c-31.5,0-57.8-25.4-57.8-57.8c0-31.5,25.2-58.6,57.2-58.6c32.7,0,57.6,25.8,57.6,59.6c0,3.1-0.2,5.7-0.8,8.7L372.2,578.6
		L372.2,578.6z M422.1,556.5c-2.6-11.2-12.4-18.7-25-18.7c-11.8,0-22,7.1-24.6,18.7H422.1z"/>
	<path d="M479.4,623.2v-84.4h-16.1V514h16.1v-36.4H512V514h15.7v24.8H512v84.4H479.4z"/>
	<path d="M610.4,623.2v-60c0-14.1-5.5-22.2-17.5-22.2c-12.4,0-18.3,7.3-18.3,20.8v61.3h-32.7V477.6h32.7v46.8
		c4.7-8.8,15.4-14.1,28.3-14.1c25,0,40.1,15.7,40.1,44.2v68.6H610.4z"/>
	<path d="M692.6,578.6c1.7,12.4,12.2,20.7,25.5,20.7c8.8,0,14.6-3.3,19.8-10.3h33.4c-10.4,23.8-30.3,37.8-53.3,37.8
		c-31.5,0-57.8-25.4-57.8-57.8c0-31.5,25.2-58.6,57.2-58.6c32.7,0,57.6,25.8,57.6,59.6c0,3.1-0.2,5.7-0.8,8.7L692.6,578.6
		L692.6,578.6z M742.5,556.5c-2.6-11.2-12.4-18.7-25-18.7c-11.8,0-22,7.1-24.6,18.7H742.5z"/>
	<path d="M793.1,623.2V514h30.7v11.6h0.4c5.7-11.6,14.7-15.4,27.4-15.4v32.8c-19.5,0.2-25.8,7.4-25.8,19.8v60.2H793.1z"/>
</g>
</svg>
