<?xml version="1.0" encoding="utf-8"?>
<!-- Generator: Adobe Illustrator 27.0.0, SVG Export Plug-In . SVG Version: 6.00 Build 0)  -->
<svg version="1.1" id="Swirl" xmlns="http://www.w3.org/2000/svg" xmlns:xlink="http://www.w3.org/1999/xlink" x="0px" y="0px"
	 viewBox="0 0 1121.4 1080" style="enable-background:new 0 0 1121.4 1080;" xml:space="preserve">
<style type="text/css">
	.st0{enable-background:new    ;}
</style>
<g class="st0">
	<path d="M185.2,896.1v-45.4l-37.3-79.5h34.6l18.6,50.1l18.7-50.1H254l-37,79.5v45.4H185.2z"/>
	<path d="M254.7,836.5c0-38.7,27.9-67.7,65.8-67.7c36.5,0,66,28.2,66,64c0,37-28.7,65.7-64.5,65.7
		C287.3,898.5,254.7,873.5,254.7,836.5z M354.6,833.8c0-19.6-14-37-34.1-37c-19.9,0-33.9,16.7-33.9,36.5c0,20.6,14,37.1,34.4,37.1
		C340.8,870.5,354.6,853.8,354.6,833.8z"/>
	<path d="M467.4,771.2h31.9v76.5c0,13-2,22.8-6.2,29.5c-8.3,13.3-22.3,21.3-41.2,21.3c-10.5,0-19.4-2-26.7-6.2
		c-14.7-8.6-21.8-20.3-21.8-44.4v-76.6h31.9v76.1c0,15.5,4.9,23.1,16.2,23.1c10.8,0,15.9-5.4,15.9-23V771.2z"/>
	<path d="M574.6,896.1V771.2h31.9v96.9h37v28H574.6z"/>
	<path d="M648.8,836.5c0-38.7,27.9-67.7,65.8-67.7c36.5,0,66,28.2,66,64c0,37-28.7,65.7-64.5,65.7
		C681.4,898.5,648.8,873.5,648.8,836.5z M748.8,833.8c0-19.6-14-37-34.1-37c-19.9,0-33.9,16.7-33.9,36.5c0,20.6,14,37.1,34.4,37.1
		C734.9,870.5,748.8,853.8,748.8,833.8z"/>
	<path d="M822.5,896.1l-41.7-124.9h32.7l25.2,87.6h0.3l25.3-87.6h32.9l-41.9,124.9H822.5z"/>
	<path d="M911.3,896.1V771.2h69.4v28h-38.8v19.4h37.6v28h-37.6v21.4h38.8v28H911.3z"/>
</g>
<g class="st0">
	<path d="M84.2,325.1l-47.9-76.3l0.8,76.3H6.6V200.2h27.5l48.6,79l-1.4-79h30.6v124.9H84.2z"/>
	<path d="M134.7,325.1V200.2h69.4v28h-38.8v19.4h37.6v28h-37.6v21.4h38.8v28H134.7z"/>
	<path d="M256.9,325.1l-41.7-124.9h32.7l25.2,87.6h0.3l25.3-87.6h32.9l-41.9,124.9H256.9z"/>
	<path d="M345.7,325.1V200.2H415v28h-38.8v19.4h37.6v28h-37.6v21.4H415v28H345.7z"/>
	<path d="M494.5,325.1l-28.9-40.3h-0.3v40.3h-30.6V200.2h40.8c13,0,23,1.7,29.5,4.6c13.5,6.1,23,20.8,23,38.5
		c0,19.7-11.8,36-31.1,39.3l33.9,42.5H494.5z M477.2,263c12.7,0,20.4-5.9,20.4-17.9c0-10.8-8.1-16.9-20.1-16.9h-12.2V263H477.2z"/>
	<path d="M683.3,325.1l-18.7-80.9h-0.3l-18.7,80.9h-28.9l-32.2-124.9h32.4l16.7,81.2h0.3l18.4-81.2h24.5l18.1,81.5h0.3l17-81.5h32.2
		l-33.1,124.9H683.3z"/>
	<path d="M749.8,265.5c0-38.7,27.9-67.7,65.8-67.7c36.5,0,66,28.2,66,64c0,37-28.7,65.7-64.5,65.7
		C782.3,327.5,749.8,302.5,749.8,265.5z M849.7,262.8c0-19.6-14-37-34.1-37c-19.9,0-33.9,16.7-33.9,36.5c0,20.6,14,37.1,34.4,37.1
		C835.9,299.4,849.7,282.7,849.7,262.8z"/>
	<path d="M958.6,325.1l-28.9-40.3h-0.3v40.3h-30.6V200.2h40.8c13,0,23,1.7,29.5,4.6c13.5,6.1,23,20.8,23,38.5
		c0,19.7-11.8,36-31.1,39.3l33.9,42.5H958.6z M941.2,263c12.7,0,20.4-5.9,20.4-17.9c0-10.8-8.1-16.9-20.1-16.9h-12.2V263H941.2z"/>
	<path d="M1078.8,325.1l-34.1-54h-0.3v54h-31.9V200.2h31.9v56.2h0.3l35.3-56.2h33.4l-41.4,62.3l44.1,62.6H1078.8z"/>
</g>
<g class="st0">
	<path d="M374.6,44c-3.9-9.4-6.6-12.4-15.6-12.4l0.4-3h35.4l-0.4,3c-10.7,0-11.6,4.3-8.9,10.9l12.4,30.8l23.6-30.8
		c5.7-7.4,5.9-10.9-4.9-10.9l0.4-3h30.6l-0.4,3c-10.7,0-14,3.9-20.4,12.4l-27.1,35.6l-2.7,15c-2.6,14.1-1.1,16.7,9.6,16.7l-0.6,3
		h-35.7l0.6-3c10.7,0,12.9-2.6,15.4-16.7l2.7-15L374.6,44z"/>
	<path d="M427.8,83.4c3.3-18,17.6-33.3,34.6-33.3c15.4,0,25.9,15.3,22.6,33.3s-17.6,33.3-34.6,33.3
		C434.8,116.7,424.5,101.4,427.8,83.4z M473.6,83.4c2.6-15-0.9-28.1-12.3-28.1c-11.3,0-19.6,13.1-22.3,28.1
		c-2.7,15,1,28.1,12.3,28.1C462.3,111.5,471,98.6,473.6,83.4z"/>
	<path d="M499.9,98.8C499.9,90,507,66,507,61c0-2.6-0.7-4.1-2.4-4.1c-2,0-5.7,2-6.9,3.3l-0.1-3.3c3.4-3.4,8.1-5.6,11.3-5.6
		c5.3,0,8,3.7,8,8.9c0,8.7-7.3,27.1-7.3,37.8c0,8.4,3.6,11.3,9.4,11.3c6.1,0,19-8.6,22.3-27.4l5.1-29.3h9.9l-9,50.3
		c-0.7,4.1-0.1,6.9,2.1,6.9c2.1,0,5-1.7,6.9-3.3l0.1,3.3c-3.4,3.4-8.1,5.6-11.3,5.6c-6,0-9.3-4.1-7.3-13.9
		c-5.6,8.9-14.6,14.6-22.7,14.6C503.6,116,499.9,107,499.9,98.8z"/>
	<path d="M597.9,92.4c1.9-10.6,10.4-21,13.3-31.4c-6.6-3.4-14.3-4.6-16.9,0.4l-1.6-1c1.7-6.6,6.3-8.9,10.9-8.9c6.6,0,8,2.7,13.3-0.7
		h3.3c-2.3,12.1-8.7,24.6-11.9,41.7c-2.1,11.9,1.9,17.6,8.1,17.6c4.9,0,11.3-4.4,15-9.1c-2.1-5.9-2.9-14.6-2.9-19.9
		c0-17.1,6.7-30.4,15.6-30.4c5.1,0,8,4.6,8,12.9c0,9.6-4.9,26.1-12,36.4c1.3,6.3,5.9,10.1,11.3,10.1c13.3,0,19.9-21.3,19.9-34.4
		c0-16.6-7.3-15.1-6.1-21.3c0.4-2.7,2.6-3.6,4.6-3.6c3.3,0,7.6,4.6,7.6,22.7c0,20.9-10.1,42.6-27.7,42.6c-6.4,0-12.6-3.6-15.9-10.4
		c-5.3,6.1-13.9,10.4-20.7,10.4C601,116.1,595.3,106.5,597.9,92.4z M647.3,63.6c0-4.9-0.9-6.3-2.1-6.3c-3.3,0-7.1,13.6-7.1,27.7
		c0,2.9,0.1,7,0.7,9C643.7,84.7,647.3,70.6,647.3,63.6z"/>
	<path d="M690.3,106.7c0-6.9,8.6-40,8.6-45.8c0-2.6-0.7-4.1-2.4-4.1c-2,0-5.7,2-6.9,3.3l-0.1-3.3c3.4-3.4,8.1-5.6,11.3-5.6
		c5.3,0,8,3.7,8,8.9c0,6.9-8.6,40-8.6,45.8c0,2.6,0.7,4.1,2.4,4.1c2,0,5.7-2,6.9-3.3l0.1,3.3c-3.4,3.4-8.1,5.6-11.3,5.6
		C693,115.5,690.3,111.8,690.3,106.7z M702.3,34.1c0.4-3.4,3.6-6.3,7-6.3s6,2.9,5.6,6.3c-0.4,3.4-3.6,6.3-7,6.3
		S701.8,37.6,702.3,34.1z"/>
	<path d="M722.1,104l9.4-53c3-16.6,2.1-19.6-6.7-19.6l0.3-2.9l20.7-3.4l-13.9,78c-0.7,3.9-0.1,6.9,2.1,6.9c2.1,0,5.7-2.1,6.9-3.3
		l0.1,3.3c-3.3,3.4-8,5.6-11.3,5.6C723.7,115.5,721,110.5,722.1,104z"/>
	<path d="M754,104l9.4-53c3-16.6,2.1-19.6-6.7-19.6l0.3-2.9l20.7-3.4l-13.9,78c-0.7,3.9-0.1,6.9,2.1,6.9c2.1,0,5.7-2.1,6.9-3.3
		l0.1,3.3c-3.3,3.4-8,5.6-11.3,5.6C755.5,115.5,752.8,110.5,754,104z"/>
</g>
<g class="st0">
	<path d="M228.2,1021.9c1.9-10.6,10.4-21,13.3-31.4c-6.6-3.4-14.3-4.6-16.9,0.4l-1.6-1c1.7-6.6,6.3-8.9,10.9-8.9
		c6.6,0,8,2.7,13.3-0.7h3.3c-2.3,12.1-8.7,24.6-11.9,41.7c-2.1,11.9,1.9,17.6,8.1,17.6c4.9,0,11.3-4.4,15-9.1
		c-2.1-5.9-2.9-14.6-2.9-19.9c0-17.1,6.7-30.4,15.6-30.4c5.1,0,8,4.6,8,12.9c0,9.6-4.9,26.1-12,36.4c1.3,6.3,5.9,10.1,11.3,10.1
		c13.3,0,19.9-21.3,19.9-34.4c0-16.6-7.3-15.1-6.1-21.3c0.4-2.7,2.6-3.6,4.6-3.6c3.3,0,7.6,4.6,7.6,22.7c0,20.9-10.1,42.6-27.7,42.6
		c-6.4,0-12.6-3.6-15.9-10.4c-5.3,6.1-13.9,10.4-20.7,10.4C231.3,1045.6,225.6,1036,228.2,1021.9z M277.6,993c0-4.9-0.9-6.3-2.1-6.3
		c-3.3,0-7.1,13.6-7.1,27.7c0,2.9,0.1,7,0.7,9C274,1014.2,277.6,1000,277.6,993z"/>
	<path d="M357.4,1036.2c0-8.7,6.6-27.3,6.6-38c0-8.4-3.6-11.3-9.4-11.3c-6.1,0-19,8.6-22.3,27.4l-5.1,29.4h-9.9l11.3-63.3
		c3-16.6,2.1-19.6-6.7-19.6l0.3-2.9l20.7-3.4l-7.1,40.1c5.6-8.9,14.6-14.6,22.7-14.6c11.6,0,15.3,9,15.3,17.1c0,8.9-6.4,33-6.4,38
		c0,2.6,0.7,4.1,2.4,4.1c2,0,5.7-2,6.9-3.3l0.1,3.3c-3.4,3.4-8.1,5.6-11.3,5.6C360.1,1045,357.4,1041.3,357.4,1036.2z"/>
	<path d="M389.6,1012.7c3.3-18,19-32.6,34.8-32.6c5.7,0,8.3,0.9,11.3,1.9h10.6l-9,50.4c-0.7,3.9-0.1,6.9,2.1,6.9
		c2,0,5.3-1.9,6.9-3.3l0.1,3.3c-3.7,3.7-8.3,5.6-11.3,5.6c-6,0-7.9-4.6-8-8.7c-3.9,6-11.9,9.4-18.3,9.4
		C393.7,1045.6,386.3,1030.7,389.6,1012.7z M429.7,1020.3l5.7-31.8c-3.1-1.9-6.7-3.1-12.1-3.1c-11.7,0-19.9,13-22.4,27.4
		c-2.6,14.4,0.7,27,11.3,27C419.4,1039.7,427.7,1031.7,429.7,1020.3z"/>
	<path d="M462.1,1026.7l7.1-39.7H458l0.9-5h11.3l2.9-17h10l-3,17h14.3l-0.9,5h-14.3l-7.1,39.7c-1.4,7.9-0.1,11.7,4.1,11.7
		c2.3,0,5.9-1.1,11-7l0.3,4.7c-5.1,6.4-11.9,8.9-15.7,8.9C463.8,1045,459.8,1039.2,462.1,1026.7z"/>
	<path d="M498.3,1061.9c0.7-2.1,2.4-4,5.3-4c5.7,0,3.6,7.9,14.4,7.9c6.4,0,15.6-5.9,21.4-12.6c0.6-6.9,0.9-13,0.9-19.1
		c0-36.3-6-47.1-11.9-47.1c-2.7,0-4.6,2-6.3,5l-2.1-2.4c1.6-5.7,6.7-8.7,11.6-8.7c11.9,0,18.3,11.3,18.3,45.8
		c0,4.6-0.1,11.9-0.3,16.4c8-9.9,19.4-27.1,19.4-45.8c0-8.9-5-9.6-5-13.7c0-2.7,2.7-4.4,5-4.4c5.1,0,6.3,6.7,6.3,15.6
		c0,30.7-35.1,77.6-62.6,77.6C501.4,1072.1,497,1066.1,498.3,1061.9z"/>
	<path d="M586.5,1012.9c3.3-18,17.6-33.3,34.6-33.3c15.4,0,25.9,15.3,22.6,33.3c-3.3,18-17.6,33.3-34.6,33.3
		C593.5,1046.1,583.2,1030.9,586.5,1012.9z M632.4,1012.9c2.6-15-0.9-28.1-12.3-28.1c-11.3,0-19.6,13.1-22.3,28.1s1,28.1,12.3,28.1
		C621.1,1041,629.8,1028,632.4,1012.9z"/>
	<path d="M658.6,1028.3c0-8.9,7.1-32.8,7.1-37.8c0-2.6-0.7-4.1-2.4-4.1c-2,0-5.7,2-6.9,3.3l-0.1-3.3c3.4-3.4,8.1-5.6,11.3-5.6
		c5.3,0,8,3.7,8,8.9c0,8.7-7.3,27.1-7.3,37.8c0,8.4,3.6,11.3,9.4,11.3c6.1,0,19-8.6,22.3-27.4l5.1-29.3h9.9l-9,50.3
		c-0.7,4.1-0.1,6.9,2.1,6.9c2.1,0,5-1.7,6.9-3.3l0.1,3.3c-3.4,3.4-8.1,5.6-11.3,5.6c-6,0-9.3-4.1-7.3-13.9
		c-5.6,8.9-14.6,14.6-22.7,14.6C662.4,1045.4,658.6,1036.4,658.6,1028.3z"/>
	<path d="M754.1,1012.7c3.3-18,19-32.6,34.8-32.6c5.3,0,8.6,0.9,12.6,3.1l0.6-2.9c3.7-18.3,2.1-19.6-6.7-19.6l0.3-2.9l20.7-3.4
		l-13.9,77.8c-0.7,3.9-0.1,6.9,2.1,6.9c2,0,5.3-1.9,6.9-3.3l0.1,3.3c-3.7,3.7-8.3,5.6-11.3,5.6c-6,0-7.9-4.6-8-8.7
		c-3.9,6-11.9,9.4-18.3,9.4C758.2,1045.6,750.8,1030.7,754.1,1012.7z M794.9,1020.3l5.7-31.7c-3.1-1.9-7.4-3.3-12.9-3.3
		c-12.1,0-19.9,13-22.4,27.4c-2.6,14.4,0.6,27,12,27C784.6,1039.7,792.9,1031.7,794.9,1020.3z"/>
	<path d="M824.2,1012.9c3.3-18,17.6-33.3,34.6-33.3c15.4,0,25.9,15.3,22.6,33.3c-3.3,18-17.6,33.3-34.6,33.3
		C831.2,1046.1,820.9,1030.9,824.2,1012.9z M870,1012.9c2.6-15-0.9-28.1-12.3-28.1c-11.3,0-19.6,13.1-22.3,28.1s1,28.1,12.3,28.1
		C858.7,1041,867.5,1028,870,1012.9z"/>
	<path d="M893.5,1037.4c0.4-4.1,4-7.4,8.1-7.4s7.1,3.3,6.7,7.4s-4,7.4-8.1,7.4C896,1044.9,893,1041.6,893.5,1037.4z"/>
</g>
<g class="st0">
	<path d="M147.9,510v-11h-0.2c-5.2,7.8-14.2,12.5-24.4,12.5c-18.8,0-33.7-14.2-33.7-33c0-18.8,15.4-32.8,33.7-32.8
		c10.4,0,19.4,4.7,24.4,12.6h0.2v-11h8V510H147.9z M148.4,478.7c0-14-11-25.8-25.2-25.8c-14.5,0-25.6,11-25.6,25.9
		c0,14.5,10.9,25.5,25.7,25.5C137.2,504.3,148.4,492.8,148.4,478.7z"/>
	<path d="M257.7,510v-11h-0.2c-5.5,8.1-14.7,12.5-24.4,12.5c-18.8,0-33.7-14.2-33.7-33c0-18.8,15.4-32.8,33.7-32.8
		c9.7,0,19,4.6,24.4,12.4h0.2v-32.9h8V510H257.7z M258.1,478.7c0-14-10.9-25.8-25.2-25.8c-14.7,0-25.6,11.1-25.6,25.9
		c0,14.3,10.8,25.5,25.7,25.5C246.9,504.3,258.1,492.9,258.1,478.7z"/>
	<path d="M336.6,510v-11h-0.2c-5.2,7.8-14.2,12.5-24.4,12.5c-18.8,0-33.7-14.2-33.7-33c0-18.8,15.4-32.8,33.7-32.8
		c10.4,0,19.4,4.7,24.4,12.6h0.2v-11h8V510H336.6z M337,478.7c0-14-11-25.8-25.2-25.8c-14.5,0-25.6,11-25.6,25.9
		c0,14.5,10.9,25.5,25.7,25.5C325.9,504.3,337,492.8,337,478.7z"/>
	<path d="M367,532.1l10.9-24.1l-24.4-60.7h8.5l20,50l21.3-50h8.5l-36.4,84.8H367z"/>
	<path d="M452.4,439.6v-14.5h8v14.5H452.4z M452.4,510v-62.7h8V510H452.4z"/>
	<path d="M522.5,510v-35c0-14.1-8.5-22.1-19.5-22.1c-12.2,0-19.6,9.3-19.6,21.6V510h-8v-62.7h8v8h0.2c4-6.1,11.1-9.6,19.3-9.6
		c17.3,0,27.6,11.9,27.6,29.4v35H522.5z"/>
	<path d="M584.9,532.1l10.9-24.1l-24.4-60.7h8.5l20,50l21.3-50h8.5l-36.4,84.8H584.9z"/>
	<path d="M635.9,479.1c0-18.5,14.9-33.4,32.7-33.4c18.2,0,32.9,15.4,32.9,32.9c0,18.2-15.3,32.9-32.9,32.9
		C650.8,511.5,635.9,496.5,635.9,479.1z M693.5,478.3c0-13.6-11-25.3-24.9-25.3c-13.6,0-24.7,11.8-24.7,26
		c0,13.8,11.1,25.3,24.8,25.3C682.8,504.3,693.5,492.6,693.5,478.3z"/>
	<path d="M760.7,510v-9.7h-0.2c-3.6,7.2-10.9,11.2-20,11.2c-13.4,0-27.2-7.1-27.2-28.3v-35.9h8v35c0,14.2,6.1,22,19.2,22
		c10.8,0,19.7-7.6,19.7-22.6v-34.4h8V510H760.7z"/>
	<path d="M783.4,510v-62.7h8v9.1h0.2c2.8-6.5,7.6-10.1,17.7-10.7v8.5h-0.1c-11.6,1.1-17.8,8.7-17.8,18.8v37H783.4z"/>
	<path d="M849.7,510v-84.9h8V510H849.7z"/>
	<path d="M872.7,439.6v-14.5h8v14.5H872.7z M872.7,510v-62.7h8V510H872.7z"/>
	<path d="M900.1,510v-55.5h-9.7v-7.2h9.7c0-17.2,8.1-23.3,24.1-23.6v7.5h-0.2c-11.1,0-15.8,4.6-15.8,15.7v0.5h16.1v7.2h-16.1V510
		H900.1z"/>
	<path d="M936.8,481.6c0.7,12.5,12.2,22.7,24.3,22.7c9.7,0,19-5.6,22.5-14.8h8.5c-4.8,13.5-17.4,22-30.9,22
		c-17.8,0-32.7-14.5-32.7-32.8c0-18.2,15-33,32.6-33c18.8,0,32.9,16.2,32.9,33.5c0,0.8-0.1,1.6-0.1,2.4H936.8z M985.7,474.4
		c-2.3-12.6-12.3-21.4-24.7-21.4c-11.7,0-22.1,8.5-24.3,21.4H985.7z"/>
	<path d="M1000.3,517.7l10.1-22.1h8.5l-10.1,22.1H1000.3z"/>
</g>
<g class="st0">
	<path d="M538.3,671.8c0-6.8,8.4-39.4,8.4-45.2c0-2.5-0.7-4.1-2.4-4.1c-2,0-5.6,2-6.8,3.2l-0.1-3.2c3.4-3.4,8-5.5,11.1-5.5
		c5.2,0,7.9,3.7,7.9,8.7c0,6.8-8.4,39.4-8.4,45.2c0,2.5,0.7,4.1,2.4,4.1c2,0,5.6-2,6.8-3.2l0.1,3.2c-3.4,3.4-8,5.5-11.1,5.5
		C541,680.5,538.3,676.8,538.3,671.8z M550.1,600.3c0.4-3.4,3.5-6.2,6.9-6.2c3.4,0,5.9,2.8,5.5,6.2c-0.4,3.4-3.5,6.2-6.9,6.2
		S549.7,603.7,550.1,600.3z"/>
	<path d="M544.9,700.5c0-3.2,2.8-5.8,6-5.8c2.8,0,4.2,2,4.8,3.7c0.6,1.8,1.5,3.2,3.9,3.2c4.8,0,6.6-5.3,9.4-21l10.1-57.3h-9.7
		l0.8-4.9h9.7c5.1-20.8,13.6-26.7,24.2-26.7c5.6,0,9.7,3.1,9.7,6.8c0,3.2-2.8,5.8-6,5.8c-2.8,0-4.2-2-4.8-3.7
		c-0.6-1.8-1.5-3.2-3.9-3.2c-4.8,0-6.3,3.5-9,19.4l-0.3,1.7h12.5l-0.8,4.9h-12.7l-10,55.8c-3.7,20.1-13.8,28-24.3,28
		C549,707.2,544.9,704.1,544.9,700.5z"/>
</g>
<path id="Path_786" d="M715.4,686.1l38.1-65.9c0.4-0.7,0.2-1.6-0.5-2c-0.2-0.1-0.5-0.2-0.7-0.2h-76.1c-0.8,0-1.5,0.7-1.5,1.5
	c0,0.3,0.1,0.5,0.2,0.7l38.1,65.9c0.4,0.7,1.3,0.9,2,0.5C715.1,686.5,715.3,686.4,715.4,686.1z"/>
<path id="Path_787" d="M441.8,686.1l38.1-65.9c0.4-0.7,0.2-1.6-0.5-2c-0.2-0.1-0.5-0.2-0.7-0.2h-76.1c-0.8,0-1.5,0.7-1.5,1.5
	c0,0.3,0.1,0.5,0.2,0.7l38.1,65.9c0.4,0.7,1.3,0.9,2,0.5C441.5,686.5,441.7,686.4,441.8,686.1z"/>
</svg>
