<?xml version="1.0" encoding="UTF-8"?><svg id="Layer_1" xmlns="http://www.w3.org/2000/svg" viewBox="0 0 1972.44 205.29"><defs><style>.cls-1{fill:#393e41;}</style></defs><polygon class="cls-1" points="209.89 51.44 251.9 .44 167.88 .44 209.89 51.44"/><polygon class="cls-1" points="125.89 51.44 167.9 .44 83.88 .44 125.89 51.44"/><polygon class="cls-1" points="293.89 51.44 335.9 .44 251.88 .44 293.89 51.44"/><polygon class="cls-1" points="377.74 51.44 419.75 .44 335.73 .44 377.74 51.44"/><polygon class="cls-1" points="461.74 51.44 503.75 .44 419.73 .44 461.74 51.44"/><polygon class="cls-1" points="545.3 51.44 587.3 .44 503.29 .44 545.3 51.44"/><polygon class="cls-1" points="629.3 51.44 671.3 .44 587.29 .44 629.3 51.44"/><polygon class="cls-1" points="712.85 51.44 754.86 .44 670.84 .44 712.85 51.44"/><polygon class="cls-1" points="796.85 51.44 838.86 .44 754.84 .44 796.85 51.44"/><polygon class="cls-1" points="880.41 51.44 922.41 .44 838.4 .44 880.41 51.44"/><polygon class="cls-1" points="964.41 51.44 1006.41 .44 922.4 .44 964.41 51.44"/><polygon class="cls-1" points="1047.96 51.44 1089.97 .44 1005.96 .44 1047.96 51.44"/><polygon class="cls-1" points="1131.96 51.44 1173.97 .44 1089.96 .44 1131.96 51.44"/><polygon class="cls-1" points="1215.52 51.44 1257.52 .44 1173.51 .44 1215.52 51.44"/><polygon class="cls-1" points="1299.52 51.44 1341.52 .44 1257.51 .44 1299.52 51.44"/><polygon class="cls-1" points="1383.07 51.44 1425.08 .44 1341.07 .44 1383.07 51.44"/><polygon class="cls-1" points="1467.07 51.44 1509.08 .44 1425.07 .44 1467.07 51.44"/><polygon class="cls-1" points="1550.63 51.44 1592.63 .44 1508.62 .44 1550.63 51.44"/><polygon class="cls-1" points="1634.63 51.44 1676.63 .44 1592.62 .44 1634.63 51.44"/><polygon class="cls-1" points="1718.18 51.44 1760.19 .44 1676.18 .44 1718.18 51.44"/><polygon class="cls-1" points="1802.18 51.44 1844.19 .44 1760.18 .44 1802.18 51.44"/><polygon class="cls-1" points="168.11 102.55 210.12 51.55 126.11 51.55 168.11 102.55"/><polygon class="cls-1" points="84.11 102.55 126.12 51.55 42.11 51.55 84.11 102.55"/><polygon class="cls-1" points="252.11 102.55 294.12 51.55 210.11 51.55 252.11 102.55"/><polygon class="cls-1" points="335.96 102.55 377.97 51.55 293.96 51.55 335.96 102.55"/><polygon class="cls-1" points="503.52 102.55 545.52 51.55 461.51 51.55 503.52 102.55"/><polygon class="cls-1" points="587.52 102.55 629.52 51.55 545.51 51.55 587.52 102.55"/><polygon class="cls-1" points="671.07 102.55 713.08 51.55 629.07 51.55 671.07 102.55"/><polygon class="cls-1" points="755.07 102.55 797.08 51.55 713.07 51.55 755.07 102.55"/><polygon class="cls-1" points="922.63 102.55 964.63 51.55 880.62 51.55 922.63 102.55"/><polygon class="cls-1" points="1006.18 102.55 1048.19 51.55 964.18 51.55 1006.18 102.55"/><polygon class="cls-1" points="1090.18 102.55 1132.19 51.55 1048.18 51.55 1090.18 102.55"/><polygon class="cls-1" points="1173.74 102.55 1215.74 51.55 1131.73 51.55 1173.74 102.55"/><polygon class="cls-1" points="1257.74 102.55 1299.74 51.55 1215.73 51.55 1257.74 102.55"/><polygon class="cls-1" points="1508.85 102.55 1550.85 51.55 1466.84 51.55 1508.85 102.55"/><polygon class="cls-1" points="1592.85 102.55 1634.85 51.55 1550.84 51.55 1592.85 102.55"/><polygon class="cls-1" points="1676.4 102.55 1718.41 51.55 1634.4 51.55 1676.4 102.55"/><polygon class="cls-1" points="1843.96 102.55 1885.97 51.55 1801.95 51.55 1843.96 102.55"/><polygon class="cls-1" points="210.11 153.74 252.12 102.74 168.11 102.74 210.11 153.74"/><polygon class="cls-1" points="125.89 153.74 167.9 102.74 83.88 102.74 125.89 153.74"/><polygon class="cls-1" points="377.96 153.74 419.97 102.74 335.96 102.74 377.96 153.74"/><polygon class="cls-1" points="545.52 153.74 587.52 102.74 503.51 102.74 545.52 153.74"/><polygon class="cls-1" points="797.07 153.74 839.08 102.74 755.07 102.74 797.07 153.74"/><polygon class="cls-1" points="880.63 153.74 922.63 102.74 838.62 102.74 880.63 153.74"/><polygon class="cls-1" points="1132.18 153.74 1174.19 102.74 1090.18 102.74 1132.18 153.74"/><polygon class="cls-1" points="1299.74 153.74 1341.74 102.74 1257.73 102.74 1299.74 153.74"/><polygon class="cls-1" points="1383.29 153.74 1425.3 102.74 1341.29 102.74 1383.29 153.74"/><polygon class="cls-1" points="1467.29 153.74 1509.3 102.74 1425.29 102.74 1467.29 153.74"/><polygon class="cls-1" points="1550.85 153.74 1592.85 102.74 1508.84 102.74 1550.85 153.74"/><polygon class="cls-1" points="1718.4 153.74 1760.41 102.74 1676.4 102.74 1718.4 153.74"/><polygon class="cls-1" points="1802.4 153.74 1844.41 102.74 1760.4 102.74 1802.4 153.74"/><polygon class="cls-1" points="1885.97 51.44 1927.97 .44 1843.96 .44 1885.97 51.44"/><polygon class="cls-1" points="1927.74 102.55 1969.75 51.55 1885.74 51.55 1927.74 102.55"/><polygon class="cls-1" points="1886.19 153.74 1928.19 102.74 1844.18 102.74 1886.19 153.74"/><polygon class="cls-1" points="1969.86 153.74 2011.86 102.74 1927.85 102.74 1969.86 153.74"/><polygon class="cls-1" points="168.19 204.85 210.19 153.85 126.18 153.85 168.19 204.85"/><polygon class="cls-1" points="252.19 204.85 294.19 153.85 210.18 153.85 252.19 204.85"/><polygon class="cls-1" points="336.04 204.85 378.04 153.85 294.03 153.85 336.04 204.85"/><polygon class="cls-1" points="420.04 204.85 462.04 153.85 378.03 153.85 420.04 204.85"/><polygon class="cls-1" points="503.59 204.85 545.6 153.85 461.59 153.85 503.59 204.85"/><polygon class="cls-1" points="587.59 204.85 629.6 153.85 545.59 153.85 587.59 204.85"/><polygon class="cls-1" points="671.15 204.85 713.15 153.85 629.14 153.85 671.15 204.85"/><polygon class="cls-1" points="755.15 204.85 797.15 153.85 713.14 153.85 755.15 204.85"/><polygon class="cls-1" points="838.7 204.85 880.71 153.85 796.7 153.85 838.7 204.85"/><polygon class="cls-1" points="922.7 204.85 964.71 153.85 880.7 153.85 922.7 204.85"/><polygon class="cls-1" points="1006.26 204.85 1048.26 153.85 964.25 153.85 1006.26 204.85"/><polygon class="cls-1" points="1090.26 204.85 1132.26 153.85 1048.25 153.85 1090.26 204.85"/><polygon class="cls-1" points="1173.81 204.85 1215.82 153.85 1131.81 153.85 1173.81 204.85"/><polygon class="cls-1" points="1257.81 204.85 1299.82 153.85 1215.81 153.85 1257.81 204.85"/><polygon class="cls-1" points="1341.37 204.85 1383.37 153.85 1299.36 153.85 1341.37 204.85"/><polygon class="cls-1" points="1425.37 204.85 1467.37 153.85 1383.36 153.85 1425.37 204.85"/><polygon class="cls-1" points="1508.92 204.85 1550.93 153.85 1466.92 153.85 1508.92 204.85"/><polygon class="cls-1" points="1592.92 204.85 1634.93 153.85 1550.92 153.85 1592.92 204.85"/><polygon class="cls-1" points="1676.48 204.85 1718.48 153.85 1634.47 153.85 1676.48 204.85"/><polygon class="cls-1" points="1760.48 204.85 1802.48 153.85 1718.47 153.85 1760.48 204.85"/><polygon class="cls-1" points="42.71 51.44 84.71 .44 .7 .44 42.71 51.44"/><polygon class="cls-1" points="42.93 153.74 84.94 102.74 .92 102.74 42.93 153.74"/><polygon class="cls-1" points="1 204.85 43.01 153.85 -41 153.85 1 204.85"/></svg>