<?xml version="1.0" encoding="utf-8"?>
<!-- Generator: Adobe Illustrator 27.0.0, SVG Export Plug-In . SVG Version: 6.00 Build 0)  -->
<svg version="1.1" id="Layer_1" xmlns="http://www.w3.org/2000/svg" xmlns:xlink="http://www.w3.org/1999/xlink" x="0px" y="0px"
	 viewBox="0 0 1972.4 984.7" style="enable-background:new 0 0 1972.4 984.7;" xml:space="preserve">
<style type="text/css">
	.st0{fill:#959595;}
	.st1{fill:#393E41;}
	.st2{fill:#FDCF9B;}
	.st3{fill:none;stroke:#FDCF9B;stroke-width:10.24;stroke-linecap:round;}
</style>
<polygon class="st0" points="1580.5,267 1939.7,645.3 1221.3,645.3 "/>
<polygon class="st0" points="1011.2,296.1 1370.4,625.5 652,625.5 "/>
<polygon class="st1" points="382.6,135.8 846.9,678.1 -81.8,678.1 "/>
<g>
	<polygon class="st1" points="1643.3,729.1 1601.3,678.1 1685.3,678.1 	"/>
	<polygon class="st1" points="1727.3,729.1 1685.3,678.1 1769.3,678.1 	"/>
	<polygon class="st1" points="1559.3,729.1 1517.3,678.1 1601.3,678.1 	"/>
	<polygon class="st1" points="1475.5,729.1 1433.5,678.1 1517.5,678.1 	"/>
	<polygon class="st1" points="1391.5,729.1 1349.5,678.1 1433.5,678.1 	"/>
	<polygon class="st1" points="1307.9,729.1 1265.9,678.1 1349.9,678.1 	"/>
	<polygon class="st1" points="1223.9,729.1 1181.9,678.1 1265.9,678.1 	"/>
	<polygon class="st1" points="1140.4,729.1 1098.4,678.1 1182.4,678.1 	"/>
	<polygon class="st1" points="1056.4,729.1 1014.4,678.1 1098.4,678.1 	"/>
	<polygon class="st1" points="972.8,729.1 930.8,678.1 1014.8,678.1 	"/>
	<polygon class="st1" points="888.8,729.1 846.8,678.1 930.8,678.1 	"/>
	<polygon class="st1" points="805.3,729.1 763.3,678.1 847.3,678.1 	"/>
	<polygon class="st1" points="721.3,729.1 679.3,678.1 763.3,678.1 	"/>
	<polygon class="st1" points="637.7,729.1 595.7,678.1 679.7,678.1 	"/>
	<polygon class="st1" points="553.7,729.1 511.7,678.1 595.7,678.1 	"/>
	<polygon class="st1" points="470.1,729.1 428.1,678.1 512.2,678.1 	"/>
	<polygon class="st1" points="386.1,729.1 344.1,678.1 428.2,678.1 	"/>
	<polygon class="st1" points="302.6,729.1 260.6,678.1 344.6,678.1 	"/>
	<polygon class="st1" points="218.6,729.1 176.6,678.1 260.6,678.1 	"/>
	<polygon class="st1" points="135,729.1 93,678.1 177,678.1 	"/>
	<polygon class="st1" points="51,729.1 9,678.1 93,678.1 	"/>
	<polygon class="st1" points="1685.1,780.2 1643.1,729.2 1727.1,729.2 	"/>
	<polygon class="st1" points="1517.3,780.2 1475.3,729.2 1559.3,729.2 	"/>
	<polygon class="st1" points="1349.7,780.2 1307.7,729.2 1391.7,729.2 	"/>
	<polygon class="st1" points="1182.2,780.2 1140.2,729.2 1224.2,729.2 	"/>
	<polygon class="st1" points="1014.6,780.2 972.6,729.2 1056.6,729.2 	"/>
	<polygon class="st1" points="930.6,780.2 888.6,729.2 972.6,729.2 	"/>
	<polygon class="st1" points="763,780.2 721,729.2 805,729.2 	"/>
	<polygon class="st1" points="679.5,780.2 637.5,729.2 721.5,729.2 	"/>
	<polygon class="st1" points="511.9,780.2 469.9,729.2 553.9,729.2 	"/>
	<polygon class="st1" points="427.9,780.2 385.9,729.2 469.9,729.2 	"/>
	<polygon class="st1" points="260.4,780.2 218.4,729.2 302.4,729.2 	"/>
	<polygon class="st1" points="176.8,780.2 134.8,729.2 218.8,729.2 	"/>
	<polygon class="st1" points="92.8,780.2 50.8,729.2 134.8,729.2 	"/>
	<polygon class="st1" points="9.3,780.2 -32.7,729.2 51.3,729.2 	"/>
	<polygon class="st1" points="1643.1,831.4 1601.1,780.4 1685.1,780.4 	"/>
	<polygon class="st1" points="1559.1,831.4 1517.1,780.4 1601.1,780.4 	"/>
	<polygon class="st1" points="1391.3,831.4 1349.3,780.4 1433.3,780.4 	"/>
	<polygon class="st1" points="1307.7,831.4 1265.7,780.4 1349.7,780.4 	"/>
	<polygon class="st1" points="1223.7,831.4 1181.7,780.4 1265.7,780.4 	"/>
	<polygon class="st1" points="1140.2,831.4 1098.2,780.4 1182.2,780.4 	"/>
	<polygon class="st1" points="1056.2,831.4 1014.2,780.4 1098.2,780.4 	"/>
	<polygon class="st1" points="888.6,831.4 846.6,780.4 930.6,780.4 	"/>
	<polygon class="st1" points="805,831.4 763,780.4 847,780.4 	"/>
	<polygon class="st1" points="721,831.4 679,780.4 763,780.4 	"/>
	<polygon class="st1" points="637.5,831.4 595.5,780.4 679.5,780.4 	"/>
	<polygon class="st1" points="469.9,831.4 427.9,780.4 511.9,780.4 	"/>
	<polygon class="st1" points="385.9,831.4 343.9,780.4 427.9,780.4 	"/>
	<polygon class="st1" points="302.4,831.4 260.4,780.4 344.4,780.4 	"/>
	<polygon class="st1" points="50.8,831.4 8.8,780.4 92.8,780.4 	"/>
	<polygon class="st1" points="1685,882.5 1643,831.5 1727.1,831.5 	"/>
	<polygon class="st1" points="1601,882.5 1559,831.5 1643.1,831.5 	"/>
	<polygon class="st1" points="1517.2,882.5 1475.2,831.5 1559.2,831.5 	"/>
	<polygon class="st1" points="1433.2,882.5 1391.2,831.5 1475.2,831.5 	"/>
	<polygon class="st1" points="1349.6,882.5 1307.6,831.5 1391.6,831.5 	"/>
	<polygon class="st1" points="1265.6,882.5 1223.6,831.5 1307.6,831.5 	"/>
	<polygon class="st1" points="1182.1,882.5 1140.1,831.5 1224.1,831.5 	"/>
	<polygon class="st1" points="930.5,882.5 888.5,831.5 972.5,831.5 	"/>
	<polygon class="st1" points="847,882.5 805,831.5 889,831.5 	"/>
	<polygon class="st1" points="679.4,882.5 637.4,831.5 721.4,831.5 	"/>
	<polygon class="st1" points="595.4,882.5 553.4,831.5 637.4,831.5 	"/>
	<polygon class="st1" points="511.9,882.5 469.9,831.5 553.9,831.5 	"/>
	<polygon class="st1" points="427.9,882.5 385.9,831.5 469.9,831.5 	"/>
	<polygon class="st1" points="260.3,882.5 218.3,831.5 302.3,831.5 	"/>
	<polygon class="st1" points="176.8,882.5 134.7,831.5 218.8,831.5 	"/>
	<polygon class="st1" points="92.8,882.5 50.7,831.5 134.8,831.5 	"/>
	<polygon class="st1" points="1643.1,933.6 1601.1,882.6 1685.1,882.6 	"/>
	<polygon class="st1" points="1727.3,933.6 1685.3,882.6 1769.3,882.6 	"/>
	<polygon class="st1" points="1475.3,933.6 1433.3,882.6 1517.3,882.6 	"/>
	<polygon class="st1" points="1391.3,933.6 1349.3,882.6 1433.3,882.6 	"/>
	<polygon class="st1" points="1140.2,933.6 1098.2,882.6 1182.2,882.6 	"/>
	<polygon class="st1" points="1056.2,933.6 1014.2,882.6 1098.2,882.6 	"/>
	<polygon class="st1" points="972.6,933.6 930.6,882.6 1014.6,882.6 	"/>
	<polygon class="st1" points="888.6,933.6 846.6,882.6 930.6,882.6 	"/>
	<polygon class="st1" points="805,933.6 763,882.6 847,882.6 	"/>
	<polygon class="st1" points="637.5,933.6 595.5,882.6 679.5,882.6 	"/>
	<polygon class="st1" points="553.5,933.6 511.5,882.6 595.5,882.6 	"/>
	<polygon class="st1" points="385.9,933.6 343.9,882.6 427.9,882.6 	"/>
	<polygon class="st1" points="218.4,933.6 176.4,882.6 260.4,882.6 	"/>
	<polygon class="st1" points="50.8,933.6 8.8,882.6 92.8,882.6 	"/>
	<polygon class="st1" points="1601,984.7 1559,933.7 1643.1,933.7 	"/>
	<polygon class="st1" points="1517.2,984.7 1475.2,933.7 1559.2,933.7 	"/>
	<polygon class="st1" points="1895.5,729.1 1853.5,678.1 1937.5,678.1 	"/>
	<polygon class="st1" points="1979.5,729.1 1937.5,678.1 2021.5,678.1 	"/>
	<polygon class="st1" points="1811.5,729.1 1769.5,678.1 1853.5,678.1 	"/>
	<polygon class="st1" points="1937.3,780.2 1895.3,729.2 1979.3,729.2 	"/>
	<polygon class="st1" points="1769.4,780.2 1727.4,729.2 1811.4,729.2 	"/>
	<polygon class="st1" points="1895.3,831.4 1853.3,780.4 1937.3,780.4 	"/>
	<polygon class="st1" points="1811.3,831.4 1769.3,780.4 1853.3,780.4 	"/>
	<polygon class="st1" points="1937.2,882.5 1895.2,831.5 1979.2,831.5 	"/>
	<polygon class="st1" points="1853.2,882.5 1811.2,831.5 1895.2,831.5 	"/>
	<polygon class="st1" points="1769.3,882.5 1727.3,831.5 1811.3,831.5 	"/>
	<polygon class="st1" points="1895.3,933.6 1853.3,882.6 1937.3,882.6 	"/>
	<polygon class="st1" points="1979.5,933.6 1937.5,882.6 2021.5,882.6 	"/>
	<polygon class="st1" points="1853.2,984.7 1811.2,933.7 1895.2,933.7 	"/>
	<polygon class="st1" points="1769.3,984.7 1727.3,933.7 1811.3,933.7 	"/>
	<polygon class="st1" points="1433.2,984.7 1391.2,933.7 1475.2,933.7 	"/>
	<polygon class="st1" points="1349.6,984.7 1307.6,933.7 1391.6,933.7 	"/>
	<polygon class="st1" points="1265.6,984.7 1223.6,933.7 1307.6,933.7 	"/>
	<polygon class="st1" points="1182.1,984.7 1140.1,933.7 1224.1,933.7 	"/>
	<polygon class="st1" points="1098.1,984.7 1056.1,933.7 1140.1,933.7 	"/>
	<polygon class="st1" points="1014.5,984.7 972.5,933.7 1056.5,933.7 	"/>
	<polygon class="st1" points="930.5,984.7 888.5,933.7 972.5,933.7 	"/>
	<polygon class="st1" points="847,984.7 805,933.7 889,933.7 	"/>
	<polygon class="st1" points="763,984.7 721,933.7 805,933.7 	"/>
	<polygon class="st1" points="679.4,984.7 637.4,933.7 721.4,933.7 	"/>
	<polygon class="st1" points="595.4,984.7 553.4,933.7 637.4,933.7 	"/>
	<polygon class="st1" points="511.9,984.7 469.9,933.7 553.9,933.7 	"/>
	<polygon class="st1" points="427.9,984.7 385.9,933.7 469.9,933.7 	"/>
	<polygon class="st1" points="344.3,984.7 302.3,933.7 386.3,933.7 	"/>
	<polygon class="st1" points="260.3,984.7 218.3,933.7 302.3,933.7 	"/>
	<polygon class="st1" points="176.8,984.7 134.7,933.7 218.8,933.7 	"/>
</g>
<g id="Group_163">
	<path id="Path_422" class="st2" d="M461.9,227.6H304l79.5-91.6L461.9,227.6L461.9,227.6z"/>
	<path id="Path_425" class="st2" d="M304.9,226.5h45.5L327.5,250L304.9,226.5z"/>
	<path id="Path_426" class="st2" d="M416.2,226.5H461L438.4,250L416.2,226.5z"/>
	<path id="Path_424" class="st2" d="M349.7,226.5h66.5L382.7,267L349.7,226.5z"/>
	<line id="Line_86" class="st3" x1="447.5" y1="141.9" x2="484.3" y2="106.2"/>
	<line id="Line_87" class="st3" x1="296.8" y1="139" x2="262.6" y2="106.2"/>
	<line id="Line_88" class="st3" x1="383" y1="106.2" x2="383" y2="56.9"/>
</g>
</svg>
