<?xml version="1.0" encoding="utf-8"?>
<!-- Generator: Adobe Illustrator 26.5.0, SVG Export Plug-In . SVG Version: 6.00 Build 0)  -->
<svg version="1.1" id="Layer_1" xmlns="http://www.w3.org/2000/svg" xmlns:xlink="http://www.w3.org/1999/xlink" x="0px" y="0px"
	 viewBox="0 0 1972.4 153.1" style="enable-background:new 0 0 1972.4 153.1;" xml:space="preserve">
<style type="text/css">
	.st0{fill:#393E41;}
</style>
<polygon class="st0" points="211.4,153.1 253.4,102.1 169.4,102.1 "/>
<polygon class="st0" points="379.4,153.1 421.4,102.1 337.4,102.1 "/>
<polygon class="st0" points="463.3,153.1 505.3,102.1 421.2,102.1 "/>
<polygon class="st0" points="714.8,153.1 756.8,102.1 672.8,102.1 "/>
<polygon class="st0" points="798.4,153.1 840.4,102.1 756.4,102.1 "/>
<polygon class="st0" points="965.9,153.1 1007.9,102.1 923.9,102.1 "/>
<polygon class="st0" points="1049.9,153.1 1091.9,102.1 1007.9,102.1 "/>
<polygon class="st0" points="1133.5,153.1 1175.5,102.1 1091.5,102.1 "/>
<polygon class="st0" points="1217.5,153.1 1259.5,102.1 1175.5,102.1 "/>
<polygon class="st0" points="1301,153.1 1343,102.1 1259,102.1 "/>
<polygon class="st0" points="1385,153.1 1427,102.1 1343,102.1 "/>
<polygon class="st0" points="1552.6,153.1 1594.6,102.1 1510.6,102.1 "/>
<polygon class="st0" points="1636.2,153.1 1678.2,102.1 1594.1,102.1 "/>
<polygon class="st0" points="1723.3,153.1 1765.3,102.1 1681.3,102.1 "/>
<polygon class="st0" points="1807.3,153.1 1849.3,102.1 1765.3,102.1 "/>
<polygon class="st0" points="128.2,153.1 170.2,102.1 86.2,102.1 "/>
<polygon class="st0" points="44.2,153.1 86.2,102.1 2.2,102.1 "/>
<g>
	<polygon class="st0" points="295.3,51 337.4,0 253.3,0 	"/>
	<polygon class="st0" points="211.3,51 253.4,0 169.3,0 	"/>
	<polygon class="st0" points="379.3,51 421.4,0 337.3,0 	"/>
	<polygon class="st0" points="463.2,51 505.2,0 421.2,0 	"/>
	<polygon class="st0" points="547.2,51 589.2,0 505.2,0 	"/>
	<polygon class="st0" points="630.8,51 672.8,0 588.7,0 	"/>
	<polygon class="st0" points="714.8,51 756.8,0 672.7,0 	"/>
	<polygon class="st0" points="798.3,51 840.3,0 756.3,0 	"/>
	<polygon class="st0" points="882.3,51 924.3,0 840.3,0 	"/>
	<polygon class="st0" points="965.9,51 1007.9,0 923.8,0 	"/>
	<polygon class="st0" points="1049.9,51 1091.9,0 1007.8,0 	"/>
	<polygon class="st0" points="1133.4,51 1175.4,0 1091.4,0 	"/>
	<polygon class="st0" points="1217.4,51 1259.4,0 1175.4,0 	"/>
	<polygon class="st0" points="1301,51 1343,0 1259,0 	"/>
	<polygon class="st0" points="1385,51 1427,0 1343,0 	"/>
	<polygon class="st0" points="1468.5,51 1510.5,0 1426.5,0 	"/>
	<polygon class="st0" points="1552.5,51 1594.5,0 1510.5,0 	"/>
	<polygon class="st0" points="1636.1,51 1678.1,0 1594.1,0 	"/>
	<polygon class="st0" points="1720.1,51 1762.1,0 1678.1,0 	"/>
	<polygon class="st0" points="1803.6,51 1845.6,0 1761.6,0 	"/>
	<polygon class="st0" points="253.1,102.2 295.1,51.2 211.1,51.2 	"/>
	<polygon class="st0" points="128.2,51 170.2,0 86.2,0 	"/>
	<polygon class="st0" points="44.2,51 86.2,0 2.2,0 	"/>
	<polygon class="st0" points="170.2,102.2 212.2,51.2 128.2,51.2 	"/>
	<polygon class="st0" points="85.9,102.2 127.9,51.2 43.9,51.2 	"/>
	<polygon class="st0" points="421.3,102.2 463.4,51.2 379.3,51.2 	"/>
	<polygon class="st0" points="505.2,102.2 547.2,51.2 463.2,51.2 	"/>
	<polygon class="st0" points="589.2,102.2 631.2,51.2 547.2,51.2 	"/>
	<polygon class="st0" points="672.8,102.2 714.8,51.2 630.7,51.2 	"/>
	<polygon class="st0" points="840.3,102.2 882.3,51.2 798.3,51.2 	"/>
	<polygon class="st0" points="924.3,102.2 966.3,51.2 882.3,51.2 	"/>
	<polygon class="st0" points="1091.9,102.2 1133.9,51.2 1049.8,51.2 	"/>
	<polygon class="st0" points="1259.4,102.2 1301.4,51.2 1217.4,51.2 	"/>
	<polygon class="st0" points="1427,102.2 1469,51.2 1385,51.2 	"/>
	<polygon class="st0" points="1343.2,102.2 1385.2,51.2 1301.2,51.2 	"/>
	<polygon class="st0" points="1594.5,102.2 1636.5,51.2 1552.5,51.2 	"/>
	<polygon class="st0" points="1762.1,102.2 1804.1,51.2 1720.1,51.2 	"/>
	<polygon class="st0" points="1891.3,51 1933.3,0 1849.3,0 	"/>
	<polygon class="st0" points="1974.9,51 2016.9,0 1932.9,0 	"/>
	<polygon class="st0" points="1933.3,102.2 1975.3,51.2 1891.3,51.2 	"/>
</g>
</svg>
