<?xml version="1.0" encoding="UTF-8"?><svg id="Layer_1" xmlns="http://www.w3.org/2000/svg" viewBox="0 0 420 360.24"><defs><style>.cls-1{fill:#fff;}</style></defs><path class="cls-1" d="M419.49,150.31l-6.02-5.74-.38-.36L265.88,6.28c-6.81-6.37-15.99-6.37-22.8,0l-65.18,61.08c-.66,.61-1.68,.63-2.34,.01l-25.54-23.34c-5.17-4.75-12.15-4.75-17.33,0L8.61,143.5l-7.96,6.38c-.81,.65-.87,1.84-.15,2.57l8.11,8.11,194.34,194.31c3.74,3.79,9.85,3.79,13.64,0l196.49-196.46,6.52-6.04c.24-.24,.37-.54,.39-.87,.04-.43-.14-.89-.51-1.19Zm-383.62-2.31l99.07-76.18c3.84-3.48,9.01-3.48,12.82,0l12.87,11.73,8.56,7.82,13.26,12.12,7.95,7.28,34.43,31.41,6.8,5.88c1.21,1.05,.47,3.03-1.13,3.03H36.91c-1.65,0-2.36-2.09-1.05-3.1Zm337.09,3.1h-105.95c.49,.49,.92,.99,1.39,1.51,22.36,24.87,28.23,61.13,13.14,91.69-17.66,35.78-59.11,53.56-97.48,41.81-43.73-13.38-63.85-58.64-41.99-94.38,17.08-27.9,53.78-36.1,81.49-18.26,23.49,15.15,27.25,46.39,7.67,64.07-14.91,13.49-38.11,12.1-48.96-2.97-7.99-11.12-4.28-24.85,7.93-29.49,7.79-2.95,14.57-.82,18.16,5.66,2.92,5.33,1.89,9.45-3.98,13.77-1.13,.84-.88,2.62,.47,3.04,4.34,1.38,7.99,.03,11.39-2.61,8.25-6.4,9.99-17.91,4.34-27.31-9.09-15.12-31.62-19.37-48.01-9.02-19,11.97-24.87,35.89-13.65,55.55,14.2,24.79,48.37,34.19,75.71,20.87,28.72-14.01,42.4-47.31,31.45-77.04-2.95-8.06-7.15-15.17-12.51-21.39-3.92-4.62-8.48-8.75-13.64-12.38-1.38-.98-.69-3.13,1-3.13h26.09c-.55-.6-1-1.11-1.57-1.69l-.1-.13-9.01-8.19-.02-.03-53.44-48.75-2.92-2.67c-.74-.68-.75-1.84-.02-2.53l46.13-43.19c5.02-4.75,11.84-4.75,16.86,0l111.21,104.18c1.15,1.07,.39,2.99-1.18,2.99Z"/></svg>