<?xml version="1.0" encoding="utf-8"?>
<!-- Generator: Adobe Illustrator 27.0.0, SVG Export Plug-In . SVG Version: 6.00 Build 0)  -->
<svg version="1.1" id="Layer_1" xmlns="http://www.w3.org/2000/svg" xmlns:xlink="http://www.w3.org/1999/xlink" x="0px" y="0px"
	 viewBox="0 0 1972.4 1707.1" style="enable-background:new 0 0 1972.4 1707.1;" xml:space="preserve">
<style type="text/css">
	.st0{opacity:0.25;}
	.st1{fill:#84A98C;}
	.st2{fill:#393E41;}
</style>
<g id="Group_250" transform="translate(0 76.167) rotate(-7)" class="st0">
	<path id="Path_399" class="st1" d="M1861.7,1582.6c-6.8,46.3-12.3,92.7-27,137.7c-18.1,55.5-43.2,107.2-77,154.7
		c-16.5,23.3-32.3,28.7-49,17.1c-16.4-11.3-16.7-29.4-0.9-51.8c151.7-215,113.7-516.4-86.1-683.5
		c-172.7-144.5-454.3-102.1-573.6,86.4c-87.8,138.6-48.6,331.7,85.2,418.8c117.1,76.3,285,33.9,341.8-86.3
		c38.6-81.9,11.7-184.3-61.3-232.9c-74.5-49.6-184-15.6-209.1,64.9c-17.3,55.7,13.3,117.8,65.7,131.3c31.1,8,58.2-0.7,79.7-24.5
		c16-17.7,19.8-38.3,11.1-60.8c-12.3-31.8-43.4-40.9-71.2-21c-17.8,12.7-33.9,12.2-45.3-1.4c-11.5-13.8-8.5-32.7,8.2-46.4
		c29.8-24.5,63.8-31.2,99.7-18.2c39.6,14.3,63.3,44.5,70.7,85.6c9.6,53-9.1,95.8-53.8,125.3c-48.6,32-100.4,34.3-150.7,5.1
		c-111.2-64.6-104.2-229,11.7-295.6c120.6-69.2,267.6-6.3,311.3,133.1c39.2,125.1-24,257.6-149.3,313.2
		c-88.5,39.3-200.4,38.4-283.3-15c-77-49.6-134.7-128.5-157.8-217.2c-54.8-210.8,88.9-409.9,287.4-471.6
		c107.7-33.5,225.5-26,327.7,22.2c146.9,69.3,230.5,192.3,275.1,344.9c10.7,36.7,13.3,74.8,20,112.2L1861.7,1582.6z"/>
</g>
<polygon class="st2" points="252.2,1707.1 294.2,1656.1 210.2,1656.1 "/>
<polygon class="st2" points="336.2,1707.1 378.2,1656.1 294.2,1656.1 "/>
<polygon class="st2" points="420,1707.1 462,1656.1 378,1656.1 "/>
<polygon class="st2" points="504,1707.1 546,1656.1 462,1656.1 "/>
<polygon class="st2" points="587.6,1707.1 629.6,1656.1 545.6,1656.1 "/>
<polygon class="st2" points="671.6,1707.1 713.6,1656.1 629.6,1656.1 "/>
<polygon class="st2" points="755.1,1707.1 797.1,1656.1 713.1,1656.1 "/>
<polygon class="st2" points="839.1,1707.1 881.1,1656.1 797.1,1656.1 "/>
<polygon class="st2" points="922.7,1707.1 964.7,1656.1 880.7,1656.1 "/>
<polygon class="st2" points="1006.7,1707.1 1048.7,1656.1 964.7,1656.1 "/>
<polygon class="st2" points="1090.2,1707.1 1132.2,1656.1 1048.2,1656.1 "/>
<polygon class="st2" points="1174.2,1707.1 1216.2,1656.1 1132.2,1656.1 "/>
<polygon class="st2" points="1257.8,1707.1 1299.8,1656.1 1215.8,1656.1 "/>
<polygon class="st2" points="1341.8,1707.1 1383.8,1656.1 1299.8,1656.1 "/>
<polygon class="st2" points="1425.3,1707.1 1467.3,1656.1 1383.3,1656.1 "/>
<polygon class="st2" points="1509.3,1707.1 1551.3,1656.1 1467.3,1656.1 "/>
<polygon class="st2" points="1764.1,1707.1 1806.1,1656.1 1722.1,1656.1 "/>
<polygon class="st2" points="1847.6,1707.1 1889.6,1656.1 1805.6,1656.1 "/>
<polygon class="st2" points="1931.6,1707.1 1973.6,1656.1 1889.6,1656.1 "/>
<polygon class="st2" points="85,1707.1 127,1656.1 43,1656.1 "/>
<polygon class="st2" points="1,1707.1 43,1656.1 -41,1656.1 "/>
</svg>
