<?xml version="1.0" encoding="UTF-8"?><svg id="Layer_1" xmlns="http://www.w3.org/2000/svg" viewBox="0 0 1972.44 205.29"><defs><style>.cls-1{fill:#393e41;}</style></defs><polygon class="cls-1" points="335.56 51.44 377.57 .44 293.55 .44 335.56 51.44"/><polygon class="cls-1" points="251.56 51.44 293.57 .44 209.55 .44 251.56 51.44"/><polygon class="cls-1" points="419.56 51.44 461.57 .44 377.55 .44 419.56 51.44"/><polygon class="cls-1" points="503.41 51.44 545.42 .44 461.41 .44 503.41 51.44"/><polygon class="cls-1" points="587.41 51.44 629.42 .44 545.41 .44 587.41 51.44"/><polygon class="cls-1" points="670.97 51.44 712.97 .44 628.96 .44 670.97 51.44"/><polygon class="cls-1" points="754.97 51.44 796.97 .44 712.96 .44 754.97 51.44"/><polygon class="cls-1" points="838.52 51.44 880.53 .44 796.52 .44 838.52 51.44"/><polygon class="cls-1" points="922.52 51.44 964.53 .44 880.52 .44 922.52 51.44"/><polygon class="cls-1" points="1006.08 51.44 1048.08 .44 964.07 .44 1006.08 51.44"/><polygon class="cls-1" points="1090.08 51.44 1132.08 .44 1048.07 .44 1090.08 51.44"/><polygon class="cls-1" points="1173.63 51.44 1215.64 .44 1131.63 .44 1173.63 51.44"/><polygon class="cls-1" points="1257.63 51.44 1299.64 .44 1215.63 .44 1257.63 51.44"/><polygon class="cls-1" points="1341.19 51.44 1383.19 .44 1299.18 .44 1341.19 51.44"/><polygon class="cls-1" points="1425.19 51.44 1467.19 .44 1383.18 .44 1425.19 51.44"/><polygon class="cls-1" points="1508.74 51.44 1550.75 .44 1466.74 .44 1508.74 51.44"/><polygon class="cls-1" points="1592.74 51.44 1634.75 .44 1550.74 .44 1592.74 51.44"/><polygon class="cls-1" points="1676.3 51.44 1718.3 .44 1634.29 .44 1676.3 51.44"/><polygon class="cls-1" points="1760.3 51.44 1802.3 .44 1718.29 .44 1760.3 51.44"/><polygon class="cls-1" points="1843.85 51.44 1885.86 .44 1801.85 .44 1843.85 51.44"/><polygon class="cls-1" points="1927.85 51.44 1969.86 .44 1885.85 .44 1927.85 51.44"/><polygon class="cls-1" points="293.78 102.55 335.79 51.55 251.78 51.55 293.78 102.55"/><polygon class="cls-1" points="209.78 102.55 251.79 51.55 167.78 51.55 209.78 102.55"/><polygon class="cls-1" points="461.63 102.55 503.64 51.55 419.63 51.55 461.63 102.55"/><polygon class="cls-1" points="545.63 102.55 587.64 51.55 503.63 51.55 545.63 102.55"/><polygon class="cls-1" points="629.19 102.55 671.19 51.55 587.18 51.55 629.19 102.55"/><polygon class="cls-1" points="713.19 102.55 755.19 51.55 671.18 51.55 713.19 102.55"/><polygon class="cls-1" points="880.74 102.55 922.75 51.55 838.74 51.55 880.74 102.55"/><polygon class="cls-1" points="964.3 102.55 1006.31 51.55 922.29 51.55 964.3 102.55"/><polygon class="cls-1" points="1131.85 102.55 1173.86 51.55 1089.85 51.55 1131.85 102.55"/><polygon class="cls-1" points="1299.41 102.55 1341.42 51.55 1257.4 51.55 1299.41 102.55"/><polygon class="cls-1" points="1383.41 102.55 1425.42 51.55 1341.4 51.55 1383.41 102.55"/><polygon class="cls-1" points="1466.97 102.55 1508.97 51.55 1424.96 51.55 1466.97 102.55"/><polygon class="cls-1" points="1634.52 102.55 1676.53 51.55 1592.51 51.55 1634.52 102.55"/><polygon class="cls-1" points="1718.52 102.55 1760.53 51.55 1676.51 51.55 1718.52 102.55"/><polygon class="cls-1" points="1886.08 102.55 1928.08 51.55 1844.07 51.55 1886.08 102.55"/><polygon class="cls-1" points="1969.63 102.55 2011.64 51.55 1927.63 51.55 1969.63 102.55"/><polygon class="cls-1" points="251.56 153.74 293.57 102.74 209.55 102.74 251.56 153.74"/><polygon class="cls-1" points="419.78 153.74 461.79 102.74 377.78 102.74 419.78 153.74"/><polygon class="cls-1" points="503.63 153.74 545.64 102.74 461.63 102.74 503.63 153.74"/><polygon class="cls-1" points="755.19 153.74 797.19 102.74 713.18 102.74 755.19 153.74"/><polygon class="cls-1" points="838.74 153.74 880.75 102.74 796.74 102.74 838.74 153.74"/><polygon class="cls-1" points="1006.3 153.74 1048.31 102.74 964.29 102.74 1006.3 153.74"/><polygon class="cls-1" points="1090.3 153.74 1132.31 102.74 1048.29 102.74 1090.3 153.74"/><polygon class="cls-1" points="1173.85 153.74 1215.86 102.74 1131.85 102.74 1173.85 153.74"/><polygon class="cls-1" points="1257.85 153.74 1299.86 102.74 1215.85 102.74 1257.85 153.74"/><polygon class="cls-1" points="1341.41 153.74 1383.42 102.74 1299.4 102.74 1341.41 153.74"/><polygon class="cls-1" points="1425.41 153.74 1467.42 102.74 1383.4 102.74 1425.41 153.74"/><polygon class="cls-1" points="1592.97 153.74 1634.97 102.74 1550.96 102.74 1592.97 153.74"/><polygon class="cls-1" points="1760.52 153.74 1802.53 102.74 1718.51 102.74 1760.52 153.74"/><polygon class="cls-1" points="1844.08 153.74 1886.08 102.74 1802.07 102.74 1844.08 153.74"/><polygon class="cls-1" points="293.86 204.85 335.86 153.85 251.85 153.85 293.86 204.85"/><polygon class="cls-1" points="377.86 204.85 419.86 153.85 335.85 153.85 377.86 204.85"/><polygon class="cls-1" points="461.71 204.85 503.71 153.85 419.7 153.85 461.71 204.85"/><polygon class="cls-1" points="545.71 204.85 587.71 153.85 503.7 153.85 545.71 204.85"/><polygon class="cls-1" points="629.26 204.85 671.27 153.85 587.26 153.85 629.26 204.85"/><polygon class="cls-1" points="713.26 204.85 755.27 153.85 671.26 153.85 713.26 204.85"/><polygon class="cls-1" points="796.82 204.85 838.82 153.85 754.81 153.85 796.82 204.85"/><polygon class="cls-1" points="880.82 204.85 922.82 153.85 838.81 153.85 880.82 204.85"/><polygon class="cls-1" points="964.37 204.85 1006.38 153.85 922.37 153.85 964.37 204.85"/><polygon class="cls-1" points="1048.37 204.85 1090.38 153.85 1006.37 153.85 1048.37 204.85"/><polygon class="cls-1" points="1131.93 204.85 1173.93 153.85 1089.92 153.85 1131.93 204.85"/><polygon class="cls-1" points="1215.93 204.85 1257.93 153.85 1173.92 153.85 1215.93 204.85"/><polygon class="cls-1" points="1299.48 204.85 1341.49 153.85 1257.48 153.85 1299.48 204.85"/><polygon class="cls-1" points="1383.48 204.85 1425.49 153.85 1341.48 153.85 1383.48 204.85"/><polygon class="cls-1" points="1467.04 204.85 1509.05 153.85 1425.03 153.85 1467.04 204.85"/><polygon class="cls-1" points="1551.04 204.85 1593.05 153.85 1509.03 153.85 1551.04 204.85"/><polygon class="cls-1" points="1802.15 204.85 1844.16 153.85 1760.14 153.85 1802.15 204.85"/><polygon class="cls-1" points="1886.15 204.85 1928.16 153.85 1844.14 153.85 1886.15 204.85"/><polygon class="cls-1" points="168.38 51.44 210.39 .44 126.37 .44 168.38 51.44"/><polygon class="cls-1" points="84.38 51.44 126.39 .44 42.37 .44 84.38 51.44"/><polygon class="cls-1" points="126.6 102.55 168.61 51.55 84.6 51.55 126.6 102.55"/><polygon class="cls-1" points="168.6 153.74 210.61 102.74 126.6 102.74 168.6 153.74"/><polygon class="cls-1" points="84.38 153.74 126.39 102.74 42.37 102.74 84.38 153.74"/><polygon class="cls-1" points="126.68 204.85 168.68 153.85 84.67 153.85 126.68 204.85"/><polygon class="cls-1" points="42.01 204.85 84.01 153.85 0 153.85 42.01 204.85"/></svg>