<?xml version="1.0" encoding="utf-8"?>
<!-- Generator: Adobe Illustrator 26.5.0, SVG Export Plug-In . SVG Version: 6.00 Build 0)  -->
<svg version="1.1" id="Layer_1" xmlns="http://www.w3.org/2000/svg" xmlns:xlink="http://www.w3.org/1999/xlink" x="0px" y="0px"
	 viewBox="0 0 1972.4 204.7" style="enable-background:new 0 0 1972.4 204.7;" xml:space="preserve">
<style type="text/css">
	.st0{fill:#393E41;}
</style>
<polygon class="st0" points="252,51 294,0 210,0 "/>
<polygon class="st0" points="168,51 210,0 126,0 "/>
<polygon class="st0" points="336,51 378,0 294,0 "/>
<polygon class="st0" points="419.9,51 461.9,0 377.9,0 "/>
<polygon class="st0" points="503.9,51 545.9,0 461.9,0 "/>
<polygon class="st0" points="587.4,51 629.4,0 545.4,0 "/>
<polygon class="st0" points="671.4,51 713.4,0 629.4,0 "/>
<polygon class="st0" points="755,51 797,0 713,0 "/>
<polygon class="st0" points="839,51 881,0 797,0 "/>
<polygon class="st0" points="922.5,51 964.5,0 880.5,0 "/>
<polygon class="st0" points="1006.5,51 1048.6,0 964.5,0 "/>
<polygon class="st0" points="1090.1,51 1132.1,0 1048.1,0 "/>
<polygon class="st0" points="1174.1,51 1216.1,0 1132.1,0 "/>
<polygon class="st0" points="1257.7,51 1299.7,0 1215.7,0 "/>
<polygon class="st0" points="1341.7,51 1383.7,0 1299.7,0 "/>
<polygon class="st0" points="1425.2,51 1467.2,0 1383.2,0 "/>
<polygon class="st0" points="1509.2,51 1551.2,0 1467.2,0 "/>
<polygon class="st0" points="1592.8,51 1634.8,0 1550.8,0 "/>
<polygon class="st0" points="1676.8,51 1718.8,0 1634.8,0 "/>
<polygon class="st0" points="1760.3,51 1802.3,0 1718.3,0 "/>
<polygon class="st0" points="1844.3,51 1886.3,0 1802.3,0 "/>
<polygon class="st0" points="210.2,102.1 252.3,51.1 168.2,51.1 "/>
<polygon class="st0" points="126.2,102.1 168.3,51.1 84.2,51.1 "/>
<polygon class="st0" points="294.2,102.1 336.3,51.1 252.2,51.1 "/>
<polygon class="st0" points="378.1,102.1 420.1,51.1 336.1,51.1 "/>
<polygon class="st0" points="545.7,102.1 587.7,51.1 503.7,51.1 "/>
<polygon class="st0" points="629.7,102.1 671.7,51.1 587.7,51.1 "/>
<polygon class="st0" points="713.2,102.1 755.2,51.1 671.2,51.1 "/>
<polygon class="st0" points="964.8,102.1 1006.8,51.1 922.8,51.1 "/>
<polygon class="st0" points="1048.3,102.1 1090.3,51.1 1006.3,51.1 "/>
<polygon class="st0" points="1132.3,102.1 1174.3,51.1 1090.3,51.1 "/>
<polygon class="st0" points="1383.4,102.1 1425.4,51.1 1341.4,51.1 "/>
<polygon class="st0" points="1551,102.1 1593,51.1 1509,51.1 "/>
<polygon class="st0" points="1635,102.1 1677,51.1 1593,51.1 "/>
<polygon class="st0" points="1802.6,102.1 1844.6,51.1 1760.5,51.1 "/>
<polygon class="st0" points="1886.1,102.1 1928.1,51.1 1844.1,51.1 "/>
<polygon class="st0" points="1928.2,51 1970.2,0 1886.2,0 "/>
<polygon class="st0" points="1970,102.1 2012,51.1 1928,51.1 "/>
<polygon class="st0" points="168,153.3 210,102.3 126,102.3 "/>
<polygon class="st0" points="336.2,153.3 378.3,102.3 294.2,102.3 "/>
<polygon class="st0" points="504.1,153.3 546.1,102.3 462.1,102.3 "/>
<polygon class="st0" points="671.7,153.3 713.7,102.3 629.7,102.3 "/>
<polygon class="st0" points="755.2,153.3 797.2,102.3 713.2,102.3 "/>
<polygon class="st0" points="839.2,153.3 881.2,102.3 797.2,102.3 "/>
<polygon class="st0" points="922.8,153.3 964.8,102.3 880.8,102.3 "/>
<polygon class="st0" points="1006.8,153.3 1048.8,102.3 964.8,102.3 "/>
<polygon class="st0" points="1174.3,153.3 1216.3,102.3 1132.3,102.3 "/>
<polygon class="st0" points="1257.9,153.3 1299.9,102.3 1215.9,102.3 "/>
<polygon class="st0" points="1341.9,153.3 1383.9,102.3 1299.9,102.3 "/>
<polygon class="st0" points="1425.4,153.3 1467.4,102.3 1383.4,102.3 "/>
<polygon class="st0" points="1509.4,153.3 1551.4,102.3 1467.4,102.3 "/>
<polygon class="st0" points="1593,153.3 1635,102.3 1551,102.3 "/>
<polygon class="st0" points="1760.6,153.3 1802.6,102.3 1718.5,102.3 "/>
<polygon class="st0" points="1844.3,153.3 1886.3,102.3 1802.3,102.3 "/>
<polygon class="st0" points="1928.1,153.3 1970.1,102.3 1886.1,102.3 "/>
<polygon class="st0" points="210.3,204.4 252.3,153.4 168.3,153.4 "/>
<polygon class="st0" points="294.3,204.4 336.3,153.4 252.3,153.4 "/>
<polygon class="st0" points="378.2,204.4 420.2,153.4 336.2,153.4 "/>
<polygon class="st0" points="462.2,204.4 504.2,153.4 420.2,153.4 "/>
<polygon class="st0" points="545.7,204.4 587.7,153.4 503.7,153.4 "/>
<polygon class="st0" points="713.3,204.4 755.3,153.4 671.3,153.4 "/>
<polygon class="st0" points="797.3,204.4 839.3,153.4 755.3,153.4 "/>
<polygon class="st0" points="964.8,204.4 1006.8,153.4 922.8,153.4 "/>
<polygon class="st0" points="1048.4,204.4 1090.4,153.4 1006.4,153.4 "/>
<polygon class="st0" points="1132.4,204.4 1174.4,153.4 1090.4,153.4 "/>
<polygon class="st0" points="1216,204.4 1258,153.4 1173.9,153.4 "/>
<polygon class="st0" points="1300,204.4 1342,153.4 1257.9,153.4 "/>
<polygon class="st0" points="1467.5,204.4 1509.5,153.4 1425.5,153.4 "/>
<polygon class="st0" points="1551.1,204.4 1593.1,153.4 1509.1,153.4 "/>
<polygon class="st0" points="1635.1,204.4 1677.1,153.4 1593.1,153.4 "/>
<polygon class="st0" points="1718.6,204.4 1760.6,153.4 1676.6,153.4 "/>
<polygon class="st0" points="1802.6,204.4 1844.6,153.4 1760.6,153.4 "/>
<polygon class="st0" points="84.8,51 126.9,0 42.8,0 "/>
<polygon class="st0" points="0.9,51 42.9,0 -41.2,0 "/>
<polygon class="st0" points="85.1,153.3 127.1,102.3 43.1,102.3 "/>
<polygon class="st0" points="0.9,153.3 42.9,102.3 -41.2,102.3 "/>
<polygon class="st0" points="43.2,204.4 85.2,153.4 1.1,153.4 "/>
</svg>
