<?xml version="1.0" encoding="utf-8"?>
<!-- Generator: Adobe Illustrator 27.0.0, SVG Export Plug-In . SVG Version: 6.00 Build 0)  -->
<svg version="1.1" id="Layer_1" xmlns="http://www.w3.org/2000/svg" xmlns:xlink="http://www.w3.org/1999/xlink" x="0px" y="0px"
	 viewBox="0 0 1972.4 455.8" style="enable-background:new 0 0 1972.4 455.8;" xml:space="preserve">
<style type="text/css">
	.st0{opacity:0.25;}
	.st1{fill:#84A98C;}
	.st2{fill:#393E41;}
</style>
<g id="Group_338" transform="matrix(-0.891, -0.454, 0.454, -0.891, 800.153, 1225.542)" class="st0">
	<path id="Path_399" class="st1" d="M-249.9,956.8c16.6-12.3,32.8-25.1,51.4-34.5c23-11.6,46.9-20,72.3-24.3
		c12.4-2.1,19,1.1,20.6,9.9c1.6,8.7-4,14.4-15.9,16.4c-114.5,19.8-196.7,125.7-186.5,240.3c8.8,99,109.9,173.7,206,152.1
		c70.7-15.9,118.7-88.4,104.2-157.3c-12.8-60.4-78.4-99.6-133.7-79.7c-37.6,13.5-61.2,53.9-53.6,91.8c7.8,38.8,52.6,62.3,85.5,45
		c22.8-12,32.6-41,20.5-61.5c-7.2-12.2-18.4-17.9-32.5-17.2c-10.5,0.5-18.1,5.8-22.5,15.5c-6.1,13.8,0.8,26.3,15.7,28.8
		c9.5,1.6,14.4,6.8,13.7,14.6c-0.7,7.9-7.5,12.9-17.1,11.9c-16.9-1.7-29.7-10.2-36.8-25.4c-7.9-16.8-5.9-33.7,4.6-48.8
		c13.6-19.5,32.7-27.1,55.9-22.3c25.2,5.2,42.1,20.6,48.6,45.5c14.5,54.9-39,104-95.9,88.6c-59.3-16-85.5-81.6-55.6-138.8
		c26.8-51.3,87.9-73,144.4-51.2c94.1,36.3,111.9,153,52.6,228.3c-10.7,13.6-23.5,25.5-37.9,35.1c-84,56.1-201.5,21.7-257.4-57.7
		c-10.3-14.5-18.5-30.5-24.5-47.2c-24.2-67.5-12-132,21.8-193.6c8.1-14.8,19.2-27.5,28.8-41.3L-249.9,956.8z"/>
</g>
<g>
	<polygon class="st2" points="253.1,404.8 295.1,455.8 211.1,455.8 	"/>
	<polygon class="st2" points="169.1,404.8 211.1,455.8 127.1,455.8 	"/>
	<polygon class="st2" points="337.1,404.8 379.1,455.8 295.1,455.8 	"/>
	<polygon class="st2" points="420.9,404.8 462.9,455.8 378.9,455.8 	"/>
	<polygon class="st2" points="504.9,404.8 546.9,455.8 462.9,455.8 	"/>
	<polygon class="st2" points="588.5,404.8 630.5,455.8 546.5,455.8 	"/>
	<polygon class="st2" points="672.5,404.8 714.5,455.8 630.5,455.8 	"/>
	<polygon class="st2" points="756,404.8 798.1,455.8 714,455.8 	"/>
	<polygon class="st2" points="840,404.8 882.1,455.8 798,455.8 	"/>
	<polygon class="st2" points="923.6,404.8 965.6,455.8 881.6,455.8 	"/>
	<polygon class="st2" points="1007.6,404.8 1049.6,455.8 965.6,455.8 	"/>
	<polygon class="st2" points="1091.2,404.8 1133.2,455.8 1049.2,455.8 	"/>
	<polygon class="st2" points="1175.2,404.8 1217.2,455.8 1133.2,455.8 	"/>
	<polygon class="st2" points="1258.7,404.8 1300.7,455.8 1216.7,455.8 	"/>
	<polygon class="st2" points="1342.7,404.8 1384.7,455.8 1300.7,455.8 	"/>
	<polygon class="st2" points="1426.3,404.8 1468.3,455.8 1384.3,455.8 	"/>
	<polygon class="st2" points="1510.3,404.8 1552.3,455.8 1468.3,455.8 	"/>
	<polygon class="st2" points="1593.8,404.8 1635.8,455.8 1551.8,455.8 	"/>
	<polygon class="st2" points="1677.8,404.8 1719.8,455.8 1635.8,455.8 	"/>
	<polygon class="st2" points="1761.4,404.8 1803.4,455.8 1719.4,455.8 	"/>
	<polygon class="st2" points="210.9,353.6 252.9,404.6 168.9,404.6 	"/>
	<polygon class="st2" points="85.9,404.8 127.9,455.8 43.9,455.8 	"/>
	<polygon class="st2" points="1.9,404.8 43.9,455.8 -40.1,455.8 	"/>
	<polygon class="st2" points="127.9,353.6 169.9,404.6 85.9,404.6 	"/>
	<polygon class="st2" points="43.7,353.6 85.7,404.6 1.7,404.6 	"/>
	<polygon class="st2" points="379.1,353.6 421.1,404.6 337.1,404.6 	"/>
	<polygon class="st2" points="462.9,353.6 504.9,404.6 420.9,404.6 	"/>
	<polygon class="st2" points="546.9,353.6 588.9,404.6 504.9,404.6 	"/>
	<polygon class="st2" points="630.5,353.6 672.5,404.6 588.5,404.6 	"/>
	<polygon class="st2" points="798,353.6 840.1,404.6 756,404.6 	"/>
	<polygon class="st2" points="882,353.6 924.1,404.6 840,404.6 	"/>
	<polygon class="st2" points="1049.6,353.6 1091.6,404.6 1007.6,404.6 	"/>
	<polygon class="st2" points="1217.2,353.6 1259.2,404.6 1175.2,404.6 	"/>
	<polygon class="st2" points="1384.7,353.6 1426.7,404.6 1342.7,404.6 	"/>
	<polygon class="st2" points="1300.9,353.6 1342.9,404.6 1258.9,404.6 	"/>
	<polygon class="st2" points="1552.3,353.6 1594.3,404.6 1510.3,404.6 	"/>
	<polygon class="st2" points="1719.8,353.6 1761.8,404.6 1677.8,404.6 	"/>
	<polygon class="st2" points="1849.1,404.8 1891.1,455.8 1807.1,455.8 	"/>
	<polygon class="st2" points="1932.6,404.8 1974.6,455.8 1890.6,455.8 	"/>
	<polygon class="st2" points="1891.1,353.6 1933.1,404.6 1849.1,404.6 	"/>
</g>
</svg>
