<?xml version="1.0" encoding="utf-8"?>
<!-- Generator: Adobe Illustrator 27.0.0, SVG Export Plug-In . SVG Version: 6.00 Build 0)  -->
<svg version="1.1" id="Layer_1" xmlns="http://www.w3.org/2000/svg" xmlns:xlink="http://www.w3.org/1999/xlink" x="0px" y="0px"
	 viewBox="0 0 1972.4 153.4" style="enable-background:new 0 0 1972.4 153.4;" xml:space="preserve">
<style type="text/css">
	.st0{fill:#393E41;}
</style>
<polygon class="st0" points="208.5,51.2 250.5,0.2 166.5,0.2 "/>
<polygon class="st0" points="124.5,51.2 166.5,0.2 82.5,0.2 "/>
<polygon class="st0" points="292.5,51.2 334.5,0.2 250.5,0.2 "/>
<polygon class="st0" points="376.4,51.2 418.4,0.2 334.4,0.2 "/>
<polygon class="st0" points="460.4,51.2 502.4,0.2 418.4,0.2 "/>
<polygon class="st0" points="543.9,51.2 585.9,0.2 501.9,0.2 "/>
<polygon class="st0" points="627.9,51.2 669.9,0.2 585.9,0.2 "/>
<polygon class="st0" points="795.5,51.2 837.5,0.2 753.5,0.2 "/>
<polygon class="st0" points="711.9,51.2 753.9,0.2 669.9,0.2 "/>
<polygon class="st0" points="879,51.2 921.1,0.2 837,0.2 "/>
<polygon class="st0" points="963,51.2 1005.1,0.2 921,0.2 "/>
<polygon class="st0" points="1046.6,51.2 1088.6,0.2 1004.6,0.2 "/>
<polygon class="st0" points="1130.6,51.2 1172.6,0.2 1088.6,0.2 "/>
<polygon class="st0" points="1214.2,51.2 1256.2,0.2 1172.1,0.2 "/>
<polygon class="st0" points="1298.2,51.2 1340.2,0.2 1256.1,0.2 "/>
<polygon class="st0" points="1381.7,51.2 1423.7,0.2 1339.7,0.2 "/>
<polygon class="st0" points="1465.7,51.2 1507.7,0.2 1423.7,0.2 "/>
<polygon class="st0" points="1549.3,51.2 1591.3,0.2 1507.3,0.2 "/>
<polygon class="st0" points="1633.3,51.2 1675.3,0.2 1591.3,0.2 "/>
<polygon class="st0" points="1718.9,51.2 1760.9,0.2 1676.9,0.2 "/>
<polygon class="st0" points="166.3,102.4 208.3,51.4 124.3,51.4 "/>
<polygon class="st0" points="41.3,51.2 83.4,0.2 -0.7,0.2 "/>
<polygon class="st0" points="-42.7,51.2 -0.6,0.2 -84.7,0.2 "/>
<polygon class="st0" points="83.3,102.4 125.4,51.4 41.3,51.4 "/>
<polygon class="st0" points="-0.9,102.4 41.1,51.4 -42.9,51.4 "/>
<polygon class="st0" points="334.5,102.4 376.5,51.4 292.5,51.4 "/>
<polygon class="st0" points="418.4,102.4 460.4,51.4 376.4,51.4 "/>
<polygon class="st0" points="502.4,102.4 544.4,51.4 460.4,51.4 "/>
<polygon class="st0" points="753.5,102.4 795.5,51.4 711.5,51.4 "/>
<polygon class="st0" points="669.9,102.4 711.9,51.4 627.9,51.4 "/>
<polygon class="st0" points="837.5,102.4 879.5,51.4 795.5,51.4 "/>
<polygon class="st0" points="1005,102.4 1047.1,51.4 963,51.4 "/>
<polygon class="st0" points="1088.5,102.4 1130.6,51.4 1046.5,51.4 "/>
<polygon class="st0" points="1172.6,102.4 1214.6,51.4 1130.6,51.4 "/>
<polygon class="st0" points="1340.2,102.4 1382.2,51.4 1298.1,51.4 "/>
<polygon class="st0" points="1256.4,102.4 1298.4,51.4 1214.4,51.4 "/>
<polygon class="st0" points="1507.7,102.4 1549.7,51.4 1465.7,51.4 "/>
<polygon class="st0" points="1675.3,102.4 1717.3,51.4 1633.3,51.4 "/>
<polygon class="st0" points="1804.5,51.2 1846.5,0.2 1762.5,0.2 "/>
<polygon class="st0" points="1888.1,51.2 1930.1,0.2 1846.1,0.2 "/>
<polygon class="st0" points="208.5,153.4 250.5,102.4 166.5,102.4 "/>
<polygon class="st0" points="124.5,153.4 166.5,102.4 82.5,102.4 "/>
<polygon class="st0" points="292.5,153.4 334.5,102.4 250.5,102.4 "/>
<polygon class="st0" points="460.4,153.4 502.4,102.4 418.4,102.4 "/>
<polygon class="st0" points="543.9,153.4 585.9,102.4 501.9,102.4 "/>
<polygon class="st0" points="627.9,153.4 669.9,102.4 585.9,102.4 "/>
<polygon class="st0" points="795.5,153.4 837.5,102.4 753.5,102.4 "/>
<polygon class="st0" points="879,153.4 921.1,102.4 837,102.4 "/>
<polygon class="st0" points="963,153.4 1005.1,102.4 921,102.4 "/>
<polygon class="st0" points="1046.6,153.4 1088.6,102.4 1004.6,102.4 "/>
<polygon class="st0" points="1130.6,153.4 1172.6,102.4 1088.6,102.4 "/>
<polygon class="st0" points="1298.2,153.4 1340.2,102.4 1256.1,102.4 "/>
<polygon class="st0" points="1381.7,153.4 1423.7,102.4 1339.7,102.4 "/>
<polygon class="st0" points="1465.7,153.4 1507.7,102.4 1423.7,102.4 "/>
<polygon class="st0" points="1549.3,153.4 1591.3,102.4 1507.3,102.4 "/>
<polygon class="st0" points="1633.3,153.4 1675.3,102.4 1591.3,102.4 "/>
<polygon class="st0" points="1716.8,153.4 1758.8,102.4 1674.8,102.4 "/>
<polygon class="st0" points="41.3,153.4 83.4,102.4 -0.7,102.4 "/>
<polygon class="st0" points="1888.1,153.4 1930.1,102.4 1846.1,102.4 "/>
<polygon class="st0" points="1972.1,51.2 2014.1,0.2 1930.1,0.2 "/>
<polygon class="st0" points="1972.1,153.4 2014.1,102.4 1930.1,102.4 "/>
<polygon class="st0" points="1846.5,102.4 1888.5,51.4 1804.5,51.4 "/>
<polygon class="st0" points="1760.9,102.4 1802.9,51.4 1718.9,51.4 "/>
</svg>
