<?xml version="1.0" encoding="utf-8"?>
<!-- Generator: Adobe Illustrator 27.0.0, SVG Export Plug-In . SVG Version: 6.00 Build 0)  -->
<svg version="1.1" id="Layer_1" xmlns="http://www.w3.org/2000/svg" xmlns:xlink="http://www.w3.org/1999/xlink" x="0px" y="0px"
	 viewBox="0 0 1972.4 382.1" style="enable-background:new 0 0 1972.4 382.1;" xml:space="preserve">
<style type="text/css">
	.st0{opacity:0.25;}
	.st1{fill:#84A98C;}
	.st2{fill:#393E41;}
</style>
<g id="Group_338" transform="matrix(-0.891, -0.454, 0.454, -0.891, 800.153, 1225.542)" class="st0">
	<path id="Path_399" class="st1" d="M909.2,971.5c-16.6,12.3-32.8,25.1-51.4,34.5c-23,11.6-46.9,20-72.3,24.3
		c-12.4,2.1-19-1.1-20.6-9.9c-1.6-8.7,4-14.4,15.9-16.4c114.5-19.8,196.7-125.7,186.5-240.3c-8.8-99-109.9-173.7-206-152.1
		c-70.7,15.9-118.7,88.4-104.2,157.3c12.8,60.4,78.4,99.6,133.7,79.7c37.6-13.5,61.2-53.9,53.6-91.8c-7.8-38.8-52.6-62.3-85.5-45
		c-22.8,12-32.6,41-20.5,61.5c7.2,12.2,18.4,17.9,32.5,17.2c10.5-0.5,18.1-5.8,22.5-15.5c6.1-13.8-0.8-26.3-15.7-28.8
		c-9.5-1.6-14.4-6.8-13.7-14.6c0.7-7.9,7.5-12.9,17.1-11.9c16.9,1.7,29.7,10.2,36.8,25.4c7.9,16.8,5.9,33.7-4.6,48.8
		c-13.6,19.5-32.7,27.1-55.9,22.3c-25.2-5.2-42.1-20.6-48.6-45.5c-14.5-54.9,39-104,95.9-88.6c59.3,16,85.5,81.6,55.6,138.8
		c-26.8,51.3-87.9,73-144.4,51.2c-94.1-36.3-111.9-153-52.6-228.3c10.7-13.6,23.5-25.5,37.9-35.1c84-56.1,201.5-21.7,257.4,57.7
		c10.3,14.5,18.5,30.5,24.5,47.2c24.2,67.5,12,132-21.8,193.6c-8.1,14.8-19.2,27.5-28.8,41.3L909.2,971.5z"/>
</g>
<polygon class="st2" points="252.1,51.2 294.1,0.2 210.1,0.2 "/>
<polygon class="st2" points="168.1,51.2 210.1,0.2 126.1,0.2 "/>
<polygon class="st2" points="336.1,51.2 378.1,0.2 294.1,0.2 "/>
<polygon class="st2" points="420,51.2 462,0.2 378,0.2 "/>
<polygon class="st2" points="504,51.2 546,0.2 462,0.2 "/>
<polygon class="st2" points="587.5,51.2 629.5,0.2 545.5,0.2 "/>
<polygon class="st2" points="671.5,51.2 713.5,0.2 629.5,0.2 "/>
<polygon class="st2" points="755.1,51.2 797.1,0.2 713.1,0.2 "/>
<polygon class="st2" points="839.1,51.2 881.1,0.2 797.1,0.2 "/>
<polygon class="st2" points="922.6,51.2 964.7,0.2 880.6,0.2 "/>
<polygon class="st2" points="1006.6,51.2 1048.7,0.2 964.6,0.2 "/>
<polygon class="st2" points="1090.2,51.2 1132.2,0.2 1048.2,0.2 "/>
<polygon class="st2" points="1174.2,51.2 1216.2,0.2 1132.2,0.2 "/>
<polygon class="st2" points="1257.8,51.2 1299.8,0.2 1215.7,0.2 "/>
<polygon class="st2" points="1341.8,51.2 1383.8,0.2 1299.7,0.2 "/>
<polygon class="st2" points="1425.3,51.2 1467.3,0.2 1383.3,0.2 "/>
<polygon class="st2" points="1509.3,51.2 1551.3,0.2 1467.3,0.2 "/>
<polygon class="st2" points="1592.9,51.2 1634.9,0.2 1550.9,0.2 "/>
<polygon class="st2" points="1676.9,51.2 1718.9,0.2 1634.9,0.2 "/>
<polygon class="st2" points="1760.4,51.2 1802.4,0.2 1718.4,0.2 "/>
<polygon class="st2" points="209.9,102.4 251.9,51.4 167.9,51.4 "/>
<polygon class="st2" points="84.9,51.2 127,0.2 42.9,0.2 "/>
<polygon class="st2" points="0.9,51.2 43,0.2 -41.1,0.2 "/>
<polygon class="st2" points="126.9,102.4 169,51.4 84.9,51.4 "/>
<polygon class="st2" points="42.7,102.4 84.7,51.4 0.7,51.4 "/>
<polygon class="st2" points="378.1,102.4 420.1,51.4 336.1,51.4 "/>
<polygon class="st2" points="462,102.4 504,51.4 420,51.4 "/>
<polygon class="st2" points="546,102.4 588,51.4 504,51.4 "/>
<polygon class="st2" points="629.5,102.4 671.5,51.4 587.5,51.4 "/>
<polygon class="st2" points="797.1,102.4 839.1,51.4 755.1,51.4 "/>
<polygon class="st2" points="881.1,102.4 923.1,51.4 839.1,51.4 "/>
<polygon class="st2" points="1048.6,102.4 1090.7,51.4 1006.6,51.4 "/>
<polygon class="st2" points="1216.2,102.4 1258.2,51.4 1174.2,51.4 "/>
<polygon class="st2" points="1383.8,102.4 1425.8,51.4 1341.7,51.4 "/>
<polygon class="st2" points="1300,102.4 1342,51.4 1258,51.4 "/>
<polygon class="st2" points="1551.3,102.4 1593.3,51.4 1509.3,51.4 "/>
<polygon class="st2" points="1718.9,102.4 1760.9,51.4 1676.9,51.4 "/>
<polygon class="st2" points="1848.1,51.2 1890.1,0.2 1806.1,0.2 "/>
<polygon class="st2" points="1931.7,51.2 1973.7,0.2 1889.7,0.2 "/>
<polygon class="st2" points="1890.1,102.4 1932.1,51.4 1848.1,51.4 "/>
</svg>
